<svg width="1280" height="1280" viewBox="0 0 1280 1280" fill="none" xmlns="http://www.w3.org/2000/svg">
<g clip-path="url(#clip0_406_158)">
<path d="M301.25 0H415.625L422.5 4.375L425.625 8.125L428.125 13.75L430.625 28.75L437.5 77.5L438.75 86.25L448.75 90L467.5 96.875L478.75 101.875L490.625 108.125L495 108.75L508.125 98.75L520 90L533.125 80L543.125 72.5L552.5 65.625L558.75 63.125H566.875L574.375 66.875L577.5 69.375V70.625L580 71.875L590 81.875V83.125H591.25V84.375H592.5V85.625H593.75V86.875H595L598.75 91.25L602.5 94.375L606.25 98.75L610 101.875L614.375 106.875L650 142.5L653.125 148.125L654.375 152.5L653.75 158.75L649.375 167.5L643.125 175.625L634.375 187.5L628.125 195.625L619.375 207.5L613.125 215.625L608.125 222.5L608.75 226.25L613.75 235.625L620.625 251.25L626.875 268.125L630 277.5L632.5 278.75L682.5 285.625L710.625 288.75L731.25 291.875L748.75 295.625L766.25 300.625L788.125 308.125L804.375 315L823.75 324.375L836.875 331.875L851.875 341.25L860 346.875L861.25 347.5L861.875 341.875L865.625 334.375L872.5 329.375L876.875 328.125H909.375L915 330.625L920 334.375L923.75 340.625L925 347.5L923.75 353.75L920 360L915.625 363.75L908.75 366.25L896.875 366.875H885.625L891.25 372.5L896.25 376.875L912.5 393.125L916.875 398.125L924.375 406.875L930.625 415L939.375 426.875L946.875 438.125L953.75 449.375L957.5 455.625L960 463.75L959.375 470L956.25 476.25L951.875 480.625L945.625 483.75L943.125 484.375H938.75L931.875 482.5L926.25 478.125L919.375 467.5L910.625 453.125L905.625 446.25L898.125 436.25L892.5 429.375L885 420.625L877.5 412.5L868.125 403.125L863.125 398.75L854.375 391.25L845.625 384.375L834.375 376.25L823.75 369.375L814.375 363.75L798.125 355L781.875 347.5L763.75 340.625L743.125 334.375L723.75 330L708.75 327.5L690 325.625L677.5 325H658.125L640 326.25L621.25 328.75L602.5 332.5L580 338.75L564.375 344.375L548.125 351.25L529.375 360.625L518.75 366.875L508.125 373.75L497.5 381.25L489.375 387.5L483.125 392.5L476.875 398.125L471.875 402.5L453.125 421.25L447.5 428.125L440.625 436.25L431.875 448.125L426.875 455.625L419.375 467.5L413.125 478.75L408.125 488.125L399.375 508.125L393.125 525.625L386.875 547.5L383.125 565L380.625 582.5L379.375 598.125L378.75 618.75L380 642.5L381.875 658.75L385 676.25L388.75 691.875L393.75 708.75L401.25 728.75L408.75 745L416.25 759.375L425 773.75L431.875 783.75L439.375 793.75L447.5 803.75L458.75 816.25L470.625 828.125L475 833.125L483.125 841.875L488.75 848.75L497.5 859.375L506.25 871.25L514.375 883.125L520 891.875L526.875 903.75L535 919.375L540 931.25L545 946.875L548.125 963.125L550 977.5L551.875 1000.62L553.125 1031.25H605L606.875 1006.25L608.75 968.125L609.375 945.625V892.5L608.75 873.125L606.875 845L605 827.5L583.125 823.125L570.625 820L551.875 813.75L536.25 806.25L529.375 801.25L523.125 795.625L516.875 789.375L512.5 783.125L508.75 776.875L505 767.5L502.5 757.5L501.875 753.125V740L504.375 727.5L508.75 717.5L514.375 709.375L521.25 702.5L529.375 697.5L536.875 694.375L545.625 692.5H560L570 694.375L581.25 698.125L591.25 703.125L600 708.75L608.125 716.25L616.25 726.875L622.5 738.125L626.875 748.125L631.25 760.625L635.625 776.25L638.75 790.625V792.5L653.125 793.125H685.625L697.5 792.5L699.375 791.875L705.625 766.25L710.625 751.25L716.25 738.125L722.5 726.875L728.75 718.75L734.375 712.5L741.875 706.25L751.875 700.625L760.625 696.875L771.25 693.75L778.75 692.5H792.5L801.875 694.375L809.375 697.5L816.875 702.5L824.375 709.375L830.625 718.75L833.75 726.25L836.25 735.625L836.875 740V753.125L834.375 765.625L831.25 773.75L826.875 782.5L821.875 789.375L816.25 795.625L810.625 800.625L801.25 806.875L786.875 813.75L768.125 820L750 824.375L736.25 826.875H733.125L732.5 837.5L730.625 859.375L729.375 890V951.25L730.625 986.875L733.125 1031.25H785L786.25 1011.25L787.5 990L790 966.25L793.125 949.375L798.125 933.125L804.375 918.125L810.625 905.625L819.375 890.625L826.875 879.375L834.375 868.75L841.875 858.75L850 848.75L854.375 843.75L861.25 835.625L865.625 831.25L870 826.25L883.125 813.125L883.75 811.875H885L886.25 809.375L892.5 802.5L899.375 793.75L908.75 781.25L915.625 770.625L923.75 756.875L931.875 741.25L937.5 728.75L943.75 712.5L948.75 696.25L953.75 676.25L956.875 657.5L958.75 641.875L959.375 633.125V600L957.5 578.125L953.75 556.25L950 539.375V529.375L953.125 523.125L957.5 518.75L962.5 516.25L965 515.625H972.5L980 518.75L985 524.375L987.5 530L991.875 548.75L995.625 570.625L997.5 588.125L998.75 609.375V618.75H1007.5L1013.75 621.25L1018.75 625.625L1022.5 633.125V643.125L1018.75 650L1013.75 654.375L1006.25 656.875L996.25 657.5L993.125 677.5L988.75 697.5L983.75 715L976.875 735L969.375 752.5L961.875 768.125L955 780.625L945 796.875L932.5 814.375L924.375 824.375L917.5 832.5L914.375 835.625L915.625 838.125L925.625 845.625L938.75 855.625L943.125 858.75L946.25 858.125L956.25 853.125L969.375 848.125L974.375 846.875L975.625 835.625L980 805L982.5 796.25L988.125 790L993.125 787.5L995 786.875H1071.88L1078.12 789.375L1082.5 793.125L1085.62 798.75L1087.5 805.625L1093.12 845.625V846.875L1099.38 848.75L1110.62 853.125L1122.5 858.75L1125 858.125L1135 850.625L1148.12 840.625L1155.62 835L1162.5 830.625L1166.25 829.375H1174.38L1180.62 831.875L1186.88 837.5L1232.5 883.125L1236.25 888.75L1237.5 891.875V901.25L1233.75 908.75L1225 920.625L1215 933.75L1209.38 941.25L1208.12 943.75L1215.62 960.625L1220.62 973.75L1251.25 978.125L1266.25 980.625L1272.5 983.75L1275.62 986.875L1278.12 990L1280 993.125V1073.75L1276.25 1079.38L1273.75 1082.5L1267.5 1085.62L1258.75 1087.5L1223.75 1092.5L1220.62 1093.12L1213.12 1112.5L1208.75 1121.25V1125L1213.75 1131.25L1222.5 1143.12L1232.5 1156.25L1236.88 1163.75L1237.5 1165.62V1175L1233.75 1182.5L1182.5 1233.75L1176.25 1236.88L1173.75 1237.5H1166.25L1160 1235L1146.88 1225L1124.38 1208.12L1121.25 1208.75L1115 1211.88L1099.38 1218.12L1093.75 1220L1092.5 1226.25L1087.5 1261.25L1085.62 1268.12L1083.12 1273.12L1078.12 1277.5L1073.75 1280H993.125V1278.75L989.375 1277.5L984.375 1273.12L981.25 1267.5L978.125 1249.38L974.375 1222.5L973.75 1220L964.375 1216.88L951.25 1211.25L944.375 1208.12H941.875V1209.38L933.125 1215.62L925 1221.88L915 1229.38L906.875 1235L900.625 1237.5H893.125L886.875 1235L880.625 1229.38L833.75 1182.5L830 1175L829.375 1169.38L831.25 1161.88L835 1156.25L841.25 1148.12L848.75 1138.12L857.5 1126.25L858.75 1125L858.125 1120.62L852.5 1108.12L846.875 1093.12L830.625 1090.62L823.75 1089.38V1121.25L821.875 1133.12L818.75 1143.12L815.625 1150.62L811.25 1158.75L805.625 1166.88L798.125 1175L793.75 1179.38L783.125 1186.88L772.5 1192.5L764.375 1195.62L757.5 1197.5H755L754.375 1202.5L751.25 1211.88L746.25 1221.88L741.875 1229.38L736.875 1235.62L731.25 1241.88L726.875 1246.25L716.25 1253.75L705.625 1259.38L695 1263.12L683.75 1265.62L680 1266.25H658.125L645 1263.75L633.125 1259.38L622.5 1253.75L613.75 1247.5L605.625 1240L600.625 1234.38L593.75 1224.38L588.75 1215L583.125 1198.12L572.5 1195L565 1191.88L554.375 1186.25L546.25 1180L540 1174.38L533.125 1166.88L526.875 1157.5L521.875 1148.12L518.125 1137.5L515.625 1126.25L515 1120.62L514.375 1045L513.75 1018.75L511.875 986.875L509.375 966.875L506.25 952.5L500.625 937.5L495.625 927.5L489.375 915.625L480.625 901.875L472.5 890.625L465 880.625L458.125 872.5L450.625 863.75L446.25 858.75L441.875 854.375L437.5 849.375L425 836.875L420.625 831.875L413.75 823.75L405.625 813.125L398.75 803.75L390 790.625L381.875 776.875L374.375 763.125L366.875 746.875L360.625 731.25L356.25 718.75L309.375 718.125L302.5 717.5L296.25 714.375L293.125 711.25L290.625 708.125L288.75 703.125L285.625 683.75L278.75 634.375V630.625L272.5 628.75L261.25 625L244.375 618.125L226.25 609.375L222.5 608.125L216.25 613.125L204.375 621.875L196.25 628.125L184.375 636.875L176.25 643.125L164.375 651.875L158.125 654.375H150.625L144.375 651.875L138.125 646.25L68.125 576.25L64.375 570.625L63.125 566.875V559.375L66.25 551.875L75 540.625L83.75 528.75L90 520.625L98.75 508.75L105 500.625L108.75 495.625L108.125 491.25L100 475L93.125 458.125L86.875 440V438.75L71.25 436.875L15 428.75L8.75 426.25L3.75 421.875L0 416.25V301.25L4.375 295L8.75 291.25L15 288.75L52.5 283.125L84.375 278.75H86.875L88.75 272.5L93.75 258.125L98.75 245.625L107.5 227.5L108.75 225L108.125 221.25L99.375 209.375L89.375 196.25L80.625 184.375L70.625 171.25L65 163.125L63.125 158.125V150L66.875 142.5L130.625 78.75L134.375 74.375L138.125 71.25L141.25 68.125L146.875 64.375L150 63.125H158.125L164.375 65.625L176.25 74.375L184.375 80.625L221.875 108.75L226.25 108.125L238.125 101.875L256.25 94.375L270 89.375L277.5 86.875L278.75 82.5L288.125 16.875L290 10L293.75 5L300 0.625L301.25 0ZM324.375 37.5L323.75 38.125L314.375 103.75L311.875 111.875L306.875 117.5L299.375 120.625L276.875 127.5L261.25 133.75L247.5 140L233.125 148.125L225.625 151.25H217.5L211.875 148.75L203.125 142.5L191.875 133.75L180 125L166.875 115L156.875 107.5L154.375 108.75L107.5 155.625L108.75 158.125L113.75 165L122.5 176.875L132.5 190L141.25 201.875L148.125 211.25L151.25 217.5V225.625L148.75 231.875L139.375 249.375L132.5 264.375L126.25 280.625L120.625 300L118.125 305.625L115 310L108.75 313.125L95.625 315.625L39.375 323.75L38.125 324.375L37.5 388.75L38.125 393.125L43.75 394.375L101.25 402.5L109.375 404.375L114.375 407.5L118.125 411.875L121.875 421.875L126.875 438.75L133.125 455L140 470L146.875 481.875L150.625 490L151.25 491.875V500L147.5 507.5L141.25 515.625L136.25 522.5L132.5 527.5L126.25 535.625L121.25 542.5L117.5 547.5L111.25 555.625L107.5 560.625L108.75 563.125L155 609.375L158.125 608.75L165.625 603.125L178.75 593.125L190.625 584.375L198.75 578.125L206.25 572.5L213.75 567.5L216.875 566.25H226.25L236.25 571.25L254.375 580.625L268.75 586.875L282.5 591.875L301.875 597.5L308.125 601.25L311.875 605.625L314.375 613.75L323.75 679.375L330.625 680H344.375L346.25 679.375L344.375 666.25L341.875 645.625L340.625 627.5V604.375L341.875 585L344.375 565.625L347.5 548.125L351.875 530L357.5 511.25L362.5 496.875V495.625L343.75 494.375L328.125 491.875L312.5 487.5L300 482.5L289.375 477.5L278.125 470.625L271.25 465.625L262.5 458.75L257.5 453.75H256.25V452.5L246.875 443.125L238.75 432.5L231.875 421.875L224.375 407.5L218.75 393.125L214.375 376.25L211.875 361.25L211.25 353.75V345L213.75 336.875L218.75 331.25L223.75 328.75L226.25 328.125H233.75L240 330.625L245 335L247.5 340L248.75 345L250 361.875L252.5 374.375L257.5 389.375L262.5 400L269.375 410.625L276.25 419.375L283.125 426.875L288.125 431.25L298.125 438.75L307.5 444.375L319.375 450L330.625 453.75L343.125 456.25L346.875 456.875L363.125 457.5L373.125 456.875L381.25 455.625L385.625 450L391.875 439.375L396.875 431.875L404.375 421.25L410 413.75L415 407.5L421.875 399.375L428.75 391.875L433.125 386.875L446.25 373.75L453.125 368.125L460 361.875L468.125 355.625L470.625 353.125V337.5L468.75 324.375L465.625 312.5L460.625 299.375L455 288.75L449.375 280.625L442.5 271.875L433.75 263.125L423.125 255L410.625 247.5L397.5 241.875L385 238.125L374.375 236.25L367.5 235.625H350.625L337.5 237.5L325.625 240.625L315.625 244.375L301.25 251.875L292.5 258.125L283.75 265.625L277.5 271.875L270.625 280.625L266.25 286.25V287.5H265L262.5 290L256.25 292.5L253.75 293.125H249.375L243.125 291.25L238.125 287.5L234.375 281.25L233.125 277.5V271.875L235.625 265L241.25 256.875L246.25 250.625V249.375H247.5L251.875 244.375L255 241.25V240L257.5 238.75L263.125 233.125L271.25 226.875L277.5 222.5L285.625 217.5L300 210L315 204.375L330 200.625L341.25 198.75L347.5 198.125H371.875L386.875 200L402.5 203.75L415 208.125L427.5 213.75L439.375 220.625L450 228.125L456.875 233.75L463.125 239.375L470.625 246.875L476.25 253.75L481.875 261.25L489.375 273.125L494.375 282.5L500.625 298.125L504.375 310.625L507.5 326.875L508.125 328.125L510.625 327.5L528.75 318.125L546.875 310L563.75 303.75L585 297.5L594.375 295L593.75 290.625L586.875 270L580.625 255.625L574.375 242.5L568.75 232.5L566.25 227.5L565.625 225V218.75L568.125 211.875L576.25 201.25L598.75 171.25L607.5 159.375L609.375 156.875L608.125 154.375L561.25 107.5L556.875 110L545.625 118.75L515.625 141.25L505 148.75L498.75 151.25H490.625L480.625 146.25L465.625 138.125L450 131.25L434.375 125.625L413.75 119.375L408.125 115.625L404.375 110L402.5 102.5L396.25 59.375L393.125 38.125L392.5 37.5H324.375ZM550 730.625L545.625 732.5L541.875 736.875L540 743.75V749.375L542.5 758.75L546.875 765.625L551.875 770.625L560.625 775.625L570.625 780L580 783.125L595 786.875H598.75L595 773.125L590.625 760.625L585.625 750.625L580 741.875L575 737.5L565.625 733.125L556.25 730.625H550ZM783.125 730.625L772.5 733.125L765 736.875L758.75 742.5L755 747.5L750 756.25L745 768.75L740 786.25L740.625 787.5L758.125 783.125L771.25 778.75L781.875 773.75L788.75 768.75L793.75 763.125L796.875 756.875L798.125 752.5L798.75 743.75L797.5 738.125L795 734.375L791.25 731.25L788.125 730.625H783.125ZM1016.25 825L1014.38 835L1010 865L1008.12 870.625L1004.38 875.625L999.375 878.75L979.375 885L965 891.25L951.875 898.125L946.25 900.625L941.25 901.25L933.125 898.75L921.875 890.625L910.625 881.875L899.375 873.75L896.875 875L874.375 897.5L875 900.625L880.625 907.5L889.375 919.375L896.875 929.375L900.625 936.875L901.25 938.75V945L898.75 951.25L890 968.125L885 980.625L879.375 998.75L875 1005L870 1008.12L862.5 1010L833.125 1014.38L825.625 1015.62L825 1026.25V1048.75L825.625 1051.25L837.5 1053.12L863.75 1056.88L870.625 1058.75L875.625 1062.5L878.75 1067.5L887.5 1093.12L896.25 1111.25L900.625 1120L901.25 1121.88V1128.12L898.75 1134.38L893.75 1141.88L887.5 1150L874.375 1167.5L875 1170L898.125 1193.12L901.25 1191.88L912.5 1183.12L924.375 1174.38L933.125 1168.12L938.125 1166.25H946.25L953.125 1169.38L967.5 1176.88L980 1181.88L1000.62 1188.75L1005.62 1192.5L1008.75 1197.5L1010.62 1205L1015.62 1241.25L1016.25 1241.88H1051.25L1054.38 1222.5L1056.88 1204.38L1058.75 1196.88L1062.5 1191.88L1065.62 1189.38L1073.12 1186.25L1085.62 1182.5L1099.38 1176.88L1117.5 1167.5L1121.25 1166.25H1129.38L1135 1168.75L1143.75 1175L1151.88 1181.25L1161.88 1188.75L1168.12 1193.12L1170 1192.5L1173.12 1189.38L1174.38 1186.88L1176.25 1186.25L1180.62 1181.25L1186.25 1176.25L1190 1171.88L1191.25 1171.25V1170H1192.5L1193.12 1167.5L1183.12 1154.38L1174.38 1142.5L1169.38 1135.62L1166.88 1130.62L1166.25 1128.75V1121.88L1168.75 1115L1175 1103.75L1180.62 1091.25L1188.12 1068.12L1191.25 1063.12V1061.88L1200 1057.5L1216.25 1055L1241.88 1051.25V1015.62L1230 1013.75L1203.12 1010L1195.62 1007.5L1190.62 1003.12L1187.5 996.875L1180 974.375L1173.75 960.625L1167.5 948.75L1166.25 945V938.125L1168.75 931.875L1178.75 918.75L1187.5 906.875L1193.12 899.375L1192.5 896.875L1169.38 873.75L1165 875.625L1155.62 883.125L1148.75 888.125L1138.75 895.625L1132.5 899.375L1125.62 901.25L1119.38 900L1109.38 895L1100 890L1087.5 885L1078.12 881.875L1068.12 878.75L1062.5 875L1058.75 869.375L1056.88 862.5L1051.88 826.25L1051.25 825H1016.25ZM644.375 831.25L646.25 858.125L647.5 889.375V951.25L646.25 989.375L643.75 1031.25L647.5 1031.88H694.375V1023.12L692.5 991.875L691.25 960V883.75L692.5 855.625L694.375 831.25H644.375ZM844.375 923.75L839.375 933.75L834.375 945.625L831.25 955L828.125 970.625L827.5 976.875L834.375 976.25L846.875 974.375L850 967.5L854.375 955.625L859.375 945L858.75 941.25L845.625 924.375L844.375 923.75ZM553.75 1069.38L553.125 1070V1118.12L555 1128.12L558.75 1136.88L563.75 1143.75L569.375 1150L575.625 1154.38L584.375 1158.75L590.625 1160.62L595 1161.25H744.375L752.5 1159.38L759.375 1156.25L766.875 1151.88L773.75 1145.62L777.5 1140.62L780.625 1135L783.75 1127.5L785 1122.5L785.625 1115.62V1070L783.75 1069.38H553.75ZM625.625 1199.38L624.375 1200.62L627.5 1206.25L633.75 1214.38H635V1215.62L642.5 1221.25L651.25 1225.62L661.25 1228.12H677.5L686.875 1225.62L696.875 1220.62L702.5 1216.25L708.75 1210L713.75 1201.88L714.375 1200L711.25 1199.38H625.625Z" fill="#1D99F2"/>
<path d="M1021.88 923.125H1045L1060 925.625L1075 930.625L1088.12 936.875L1096.88 942.5L1105 948.75L1114.38 957.5L1121.25 965.625L1128.12 975.625L1135.62 990L1140 1002.5L1142.5 1012.5L1144.38 1026.88V1040.62L1142.5 1054.38L1139.38 1066.88L1134.38 1080L1129.38 1089.38L1121.88 1100.62L1113.75 1110L1107.5 1116.25L1101.25 1121.25L1093.12 1126.88L1083.12 1132.5L1071.88 1137.5L1058.75 1141.25L1045 1143.75L1030.62 1144.38L1017.5 1143.12L1003.12 1140L990.625 1135.62L980.625 1130.62L971.25 1125L963.125 1118.75L960 1116.25V1115H958.75L955 1108.75L953.75 1104.38V1100L955.625 1093.75L958.125 1090L961.25 1086.88L966.25 1083.75L968.125 1083.12H977.5L983.125 1085.62L993.125 1093.12L1003.12 1098.75L1013.12 1102.5L1021.25 1104.38L1025.62 1105H1041.88L1054.38 1102.5L1066.25 1097.5L1075 1092.5L1081.88 1086.88L1089.38 1079.38L1095 1071.25L1100 1061.25L1103.75 1050L1105 1043.12V1024.38L1103.12 1015L1100 1005.62L1095 995.625L1089.38 987.5L1082.5 980L1075 974.375L1065.62 968.75L1056.25 965L1046.25 962.5L1041.25 961.875H1026.25L1015 963.75L1004.38 967.5L996.25 971.875L987.5 978.125L984.375 981.25H983.125V982.5H981.875V983.75H980.625L979.375 986.25L973.125 994.375L968.125 1003.75L964.375 1014.38L962.5 1023.12L961.25 1037.5L958.75 1043.12L955 1048.12L951.25 1050.62L945 1052.5H938.75L933.125 1050.62L928.75 1047.5L925 1041.88L923.125 1036.88V1024.38L925.625 1008.75L930 994.375L935.625 981.875L942.5 970.625L948.75 962.5L955.625 955L961.25 949.375L971.25 941.875L982.5 935L991.875 930.625L1005 926.25L1017.5 923.75L1021.88 923.125Z" fill="#1D99F2"/>
<path d="M195.625 969.375H206.875L229.375 970.625L236.875 974.375L241.25 979.375L243.75 985V993.125L241.25 999.375L236.25 1005L231.25 1007.5L226.25 1008.75H211.25L197.5 1007.5L191.25 1005.62L187.5 1003.12L183.125 998.125L180.625 992.5V985L183.125 978.125L186.875 973.75L191.875 970.625L195.625 969.375Z" fill="#1D99F2"/>
<path d="M1051.88 328.125H1072.5L1081.88 328.75L1088.75 330.625L1092.5 333.125L1095.62 336.25L1098.75 341.25L1100 345V351.25L1097.5 357.5L1093.75 362.5L1088.75 365.625L1085 366.875H1061.25L1052.5 366.25L1046.88 364.375L1041.88 360.625L1038.12 355L1036.88 351.875V342.5L1040.62 335L1045.62 330.625L1051.88 328.125Z" fill="#1D99F2"/>
<path d="M964.375 328.125H996.875L1003.12 330.625L1008.12 335L1011.25 340L1012.5 345V349.375L1010.62 355.625L1006.25 361.25L1000.62 365L996.25 366.25H964.375L958.75 364.375L952.5 358.75L949.375 352.5L948.75 349.375V345L951.25 337.5L956.875 331.25L961.875 328.75L964.375 328.125Z" fill="#1D99F2"/>
<path d="M1203.12 499.375H1211.25L1217.5 501.875L1222.5 506.25L1225.62 511.875L1226.88 519.375L1223.75 534.375L1219.38 548.125L1215.62 555L1211.25 558.75L1205 561.25L1198.75 561.875L1192.5 560L1187.5 556.25L1183.75 551.25L1181.88 546.25V539.375L1186.88 520.625L1189.38 511.875L1191.88 506.875L1195 503.75L1199.38 500.625L1203.12 499.375Z" fill="#1D99F2"/>
<path d="M80.625 773.125L86.875 773.75L93.125 776.875L95 778.125V779.375H96.25L100 785.625L101.25 790L100.625 796.875L97.5 807.5L93.75 821.875L90.625 828.125L86.25 832.5L80.625 835L77.5 835.625H71.875L65 833.125L60 828.75L56.875 823.125L56.25 820.625V812.5L60 796.875L63.75 786.25L66.25 781.25L67.5 779.375H68.75V778.125L75 774.375L80.625 773.125Z" fill="#1D99F2"/>
<path d="M467.5 970L492.5 970.625L500 974.375L503.75 978.75L506.25 983.75L506.875 986.25V993.125L504.375 999.375L499.375 1005L494.375 1007.5L488.75 1008.75H461.875L455.625 1007.5L450 1003.75L446.25 999.375L443.75 993.75V985L447.5 977.5L453.125 972.5L457.5 970.625L467.5 970Z" fill="#1D99F2"/>
<path d="M370 970.625H405L411.25 973.75L416.25 978.75L418.75 984.375L419.375 986.875V991.875L417.5 997.5L413.75 1003.12L408.125 1006.88L400.625 1008.75H373.75L368.125 1007.5L363.125 1004.38L358.75 1000L356.25 994.375L355.625 991.875V987.5L357.5 981.25L361.25 975.625L368.125 971.25L370 970.625Z" fill="#1D99F2"/>
<path d="M1164.38 575.625H1170L1175.62 577.5L1181.25 581.25L1185 586.875L1186.88 592.5V596.875L1185 603.125L1181.25 608.125L1173.12 616.25L1166.25 621.875L1158.75 627.5L1154.38 629.375L1151.25 630H1145.62L1139.38 628.125L1134.38 624.375L1131.25 620L1129.38 614.375V608.125L1131.88 601.25L1136.25 596.25L1144.38 589.375L1149.38 585L1156.88 578.75L1161.88 576.25L1164.38 575.625Z" fill="#1D99F2"/>
<path d="M1087.5 616.25H1094.38L1100 618.125L1105.62 622.5L1109.38 628.75L1110 630.625V640.625L1106.25 647.5L1101.25 651.875L1093.75 654.375L1080.62 656.25L1073.75 656.875H1063.12L1056.25 654.375L1051.25 650L1047.5 642.5V633.75L1050 627.5L1054.38 622.5L1060 619.375L1068.75 618.125L1082.5 616.875L1087.5 616.25Z" fill="#1D99F2"/>
<path d="M1192.5 413.75H1200.62L1206.25 415.625L1212.5 421.25L1216.88 430L1223.75 450.625L1224.38 453.75V459.375L1221.88 465.625L1218.12 470.625L1211.88 474.375L1209.38 475H1201.25L1195.62 473.125L1190 468.125L1186.25 460.625L1181.25 445.625L1178.12 437.5L1177.5 435V430.625L1179.38 424.375L1183.12 419.375L1187.5 415.625L1192.5 413.75Z" fill="#1D99F2"/>
<path d="M282.5 970.625H316.875L322.5 973.125L327.5 977.5L330.625 983.125L331.875 990L330.625 995.625L328.125 1000.62L323.75 1005L318.75 1007.5L313.125 1008.75H286.25L278.75 1006.88L273.125 1002.5L269.375 996.25L268.125 992.5V986.25L270.625 979.375L275 974.375L282.5 970.625Z" fill="#1D99F2"/>
<path d="M76.25 859.375L83.125 860.625L88.125 863.125L93.125 868.75L96.875 878.75L103.75 899.375V905.625L100.625 913.125L96.875 917.5L90.625 920.625L88.75 921.25H80.625L74.375 918.75L70 915L66.875 910L61.875 897.5L57.5 882.5V875.625L60 868.75L64.375 863.75L69.375 860.625L76.25 859.375Z" fill="#1D99F2"/>
<path d="M131.25 705.625H139.375L145 708.125L150 712.5L153.125 717.5L154.375 721.25V728.125L151.875 734.375L146.25 740.625L138.125 746.875L131.875 752.5L125 757.5L120 759.375H111.25L105.625 756.875L101.875 753.75L98.75 748.75L96.875 742.5V737.5L99.375 730.625L103.75 725.625L113.125 716.875L123.125 709.375L129.375 706.25L131.25 705.625Z" fill="#1D99F2"/>
<path d="M206.25 680H221.875L227.5 682.5L232.5 686.875L235.625 691.875L236.875 695.625V701.875L234.375 708.75L228.75 715L221.875 717.5L196.875 720H188.75L182.5 717.5L178.75 714.375L175 708.75L173.75 705V697.5L176.25 691.25L178.75 687.5L184.375 683.75L190 681.875L206.25 680Z" fill="#1D99F2"/>
<path d="M1138.12 348.75L1144.38 349.375L1153.12 353.75L1161.88 360L1170.62 366.875L1175.62 371.875L1178.12 376.875L1178.75 378.75V386.875L1176.25 392.5L1171.88 397.5L1168.75 400L1163.12 401.875H1156.25L1150 399.375L1142.5 393.75L1131.25 385.625L1125.62 381.25L1121.88 375.625L1120.62 372.5L1120 367.5L1121.88 360L1125.62 355L1130 351.25L1134.38 349.375L1138.12 348.75Z" fill="#1D99F2"/>
<path d="M116.875 933.75H125L130 935.625L136.875 940.625L143.125 945.625L153.75 953.125L157.5 957.5L160 963.125V972.5L156.875 978.75L154.375 981.875L149.375 985L143.125 986.875H138.75L133.125 985L127.5 981.875L118.125 975L111.25 969.375L106.25 965L102.5 958.125L101.875 955V950.625L103.75 944.375L107.5 938.75L113.125 935L116.875 933.75Z" fill="#1D99F2"/>
</g>
<defs>
<clipPath id="clip0_406_158">
<rect width="1280" height="1280" fill="white"/>
</clipPath>
</defs>
</svg>
