<svg width="40" height="40" viewBox="0 0 40 40" fill="none" xmlns="http://www.w3.org/2000/svg">
<path fill-rule="evenodd" clip-rule="evenodd" d="M8.80005 23.617C8.82382 26.7304 11.3649 29.2365 14.4784 29.217H15.248L17.5232 31.617C17.7541 31.8551 18.0716 31.9895 18.4032 31.9895C18.7349 31.9895 19.0524 31.8551 19.2832 31.617L21.5584 29.217H22.328C25.4391 29.233 27.9762 26.728 28 23.617V16.801C27.9762 13.6874 25.4352 11.1814 22.3216 11.2009H14.4816C11.3668 11.1797 8.82382 13.6861 8.80005 16.801V23.617Z" stroke="black" stroke-width="2" stroke-linecap="round" stroke-linejoin="round"/>
<path d="M11.6 11.201C11.6 11.8637 12.1372 12.401 12.8 12.401C13.4627 12.401 14 11.8637 14 11.201H11.6ZM26.3184 7.20096V8.40116L26.3406 8.40075L26.3184 7.20096ZM32 12.6762H33.2001L33.1998 12.654L32 12.6762ZM28 23.601C27.3373 23.601 26.8 24.1382 26.8 24.801C26.8 25.4637 27.3373 26.001 28 26.001V23.601ZM13.6 17.201C12.9372 17.201 12.4 17.7382 12.4 18.401C12.4 19.0637 12.9372 19.601 13.6 19.601V17.201ZM22.824 19.601C23.4867 19.601 24.024 19.0637 24.024 18.401C24.024 17.7382 23.4867 17.201 22.824 17.201V19.601ZM14.7536 20.5738C14.0908 20.5738 13.5536 21.111 13.5536 21.7738C13.5536 22.4365 14.0908 22.9738 14.7536 22.9738V20.5738ZM21.6704 22.9738C22.3331 22.9738 22.8704 22.4365 22.8704 21.7738C22.8704 21.111 22.3331 20.5738 21.6704 20.5738V22.9738ZM14 11.201C14 10.0982 14.4251 9.49268 15.0846 9.09355C15.8371 8.63803 16.9973 8.40096 18.4784 8.40096V6.00096C16.8235 6.00096 15.1445 6.25187 13.8418 7.04036C12.446 7.88523 11.6 9.27972 11.6 11.201H14ZM18.4784 8.40096L26.3184 8.40116V6.00096H18.4784V8.40096ZM26.3406 8.40075C27.5019 8.37923 28.6241 8.81993 29.4605 9.62588L31.1259 7.89774C29.8312 6.65008 28.0939 5.96785 26.2961 6.00117L26.3406 8.40075ZM29.4605 9.62588C30.2968 10.4319 30.7787 11.537 30.8001 12.6983L33.1998 12.654C33.1665 10.8563 32.4206 9.14539 31.1259 7.89774L29.4605 9.62588ZM30.8 12.6762V19.3258H33.2L33.2001 12.6762H30.8ZM30.8 19.3258C30.8 20.7782 30.5989 21.8734 30.1736 22.5758C29.8166 23.1653 29.2321 23.601 28 23.601V26.001C29.9678 26.001 31.3833 25.211 32.2264 23.8189C33.0011 22.5397 33.2 20.8973 33.2 19.3258H30.8ZM13.6 19.601H22.824V17.201H13.6V19.601ZM14.7536 22.9738H21.6704V20.5738H14.7536V22.9738Z" fill="black"/>
</svg>
