<svg width="205" height="80" viewBox="0 0 205 80" fill="none" xmlns="http://www.w3.org/2000/svg">
<g clip-path="url(#clip0_524_2)">
<rect width="60" height="80" rx="20" fill="#339BB8"/>
<path d="M43.95 62.5C42.45 62.5 40.9667 62.0667 39.5 61.2C38.0667 60.3667 36.2333 59.0667 34 57.3C32.3333 55.9667 30.9 54.8833 29.7 54.05C28.5333 53.25 27.25 52.5667 25.85 52C24.4833 51.4333 23.0833 51.15 21.65 51.15C21.15 51.15 20.7667 51.1667 20.5 51.2L27.95 16.55C25.7167 17.45 23.9833 18.8333 22.75 20.7C21.55 22.5333 20.95 24.7833 20.95 27.45C20.95 28.6833 21.0667 29.55 21.3 30.05C21.5333 30.5167 21.65 30.7833 21.65 30.85C19.85 30.85 18.5 30.4833 17.6 29.75C16.7333 28.9833 16.3 27.7333 16.3 26C16.3 23.8667 17.1667 21.8 18.9 19.8C20.6667 17.7667 22.9167 16.1333 25.65 14.9C28.3833 13.6333 31.1167 13 33.85 13C34.3167 13 34.9833 13.0333 35.85 13.1L28.15 49C29.0833 49.2333 30.0333 49.5667 31 50C32 50.4667 33.2 51.0833 34.6 51.85C36.7667 53.0167 38.6167 53.9 40.15 54.5C41.6833 55.1333 43.2833 55.45 44.95 55.45C46.45 55.45 47.85 55.1833 49.15 54.65C48.8833 57.0833 48.2833 59 47.35 60.4C46.45 61.8 45.3167 62.5 43.95 62.5Z" fill="#FFF8F8"/>
<path d="M74.048 58C73.664 58 73.344 57.864 73.088 57.592L68.288 52.792C68.016 52.536 67.88 52.216 67.88 51.832V26.608C67.88 26.208 68.08 26.008 68.48 26.008H75.272C75.672 26.008 75.872 26.208 75.872 26.608V51.112C75.872 51.432 76.032 51.592 76.352 51.592H80.288V26.608C80.288 26.208 80.488 26.008 80.888 26.008H87.68C88.08 26.008 88.28 26.208 88.28 26.608V57.4C88.28 57.8 88.08 58 87.68 58H74.048ZM103.108 58C102.74 58 102.42 57.896 102.148 57.688L98.2363 54.112L94.2763 48.952C94.1003 48.728 93.9883 48.592 93.9403 48.544C93.8923 48.48 93.8683 48.336 93.8683 48.112V35.872C93.8683 35.648 93.8923 35.504 93.9403 35.44C94.0043 35.376 94.1163 35.24 94.2763 35.032L97.9483 30.28L102.148 26.32C102.324 26.176 102.46 26.088 102.556 26.056C102.668 26.024 102.852 26.008 103.108 26.008H109.036C109.436 26.008 109.636 26.208 109.636 26.608V30.448C109.636 30.576 109.62 30.712 109.588 30.856C109.572 30.984 109.492 31.096 109.348 31.192L104.836 34.288L101.884 38.08V45.928L104.884 49.72L109.348 52.792C109.476 52.872 109.556 52.968 109.588 53.08C109.62 53.192 109.636 53.312 109.636 53.44V57.4C109.636 57.8 109.436 58 109.036 58H103.108ZM114.718 58C114.318 58 114.118 57.8 114.118 57.4V35.152C114.118 34.944 114.198 34.704 114.358 34.432L120.046 26.368C120.222 26.128 120.478 26.008 120.814 26.008H128.758C129.11 26.008 129.366 26.128 129.526 26.368L135.238 34.432C135.398 34.656 135.478 34.896 135.478 35.152V57.4C135.478 57.8 135.278 58 134.878 58H128.086C127.686 58 127.486 57.8 127.486 57.4V47.2H122.134V57.4C122.134 57.8 121.934 58 121.534 58H114.718ZM124.798 42.04C126.27 42.04 127.262 41.72 127.774 41.08C128.302 40.424 128.566 39.184 128.566 37.36C128.566 35.536 128.302 34.304 127.774 33.664C127.262 33.008 126.27 32.68 124.798 32.68C123.342 32.68 122.35 33.008 121.822 33.664C121.31 34.304 121.054 35.536 121.054 37.36C121.054 39.184 121.31 40.424 121.822 41.08C122.35 41.72 123.342 42.04 124.798 42.04ZM141.699 58C141.299 58 141.099 57.8 141.099 57.4V31.36C141.099 30.992 141.235 30.672 141.507 30.4L145.491 26.392C145.763 26.136 146.083 26.008 146.451 26.008H151.947C152.315 26.008 152.635 26.136 152.907 26.392L156.939 30.448H158.067L162.099 26.392C162.371 26.136 162.691 26.008 163.059 26.008H168.531C168.915 26.008 169.235 26.136 169.491 26.392L173.499 30.4C173.771 30.672 173.907 30.992 173.907 31.36V57.4C173.907 57.8 173.707 58 173.307 58H166.491C166.091 58 165.891 57.8 165.891 57.4V32.392H161.499V57.4C161.499 57.8 161.299 58 160.899 58H154.107C153.707 58 153.507 57.8 153.507 57.4V32.392H149.091V57.4C149.091 57.8 148.891 58 148.491 58H141.699ZM185.845 58C185.477 58 185.157 57.864 184.885 57.592L180.085 52.792C179.813 52.536 179.677 52.216 179.677 51.832V32.152C179.677 31.784 179.813 31.464 180.085 31.192L184.885 26.392C185.157 26.136 185.477 26.008 185.845 26.008H195.277C195.661 26.008 195.981 26.136 196.237 26.392L201.037 31.192C201.309 31.464 201.445 31.784 201.445 32.152V51.832C201.445 52.216 201.309 52.536 201.037 52.792L196.237 57.592C195.981 57.864 195.661 58 195.277 58H185.845ZM188.677 51.592H192.445C193.117 51.592 193.453 51.144 193.453 50.248V33.76C193.453 32.848 193.117 32.392 192.445 32.392H188.677C188.021 32.392 187.693 32.848 187.693 33.76V50.248C187.693 51.144 188.021 51.592 188.677 51.592Z" fill="#F1F1E6"/>
</g>
<defs>
<clipPath id="clip0_524_2">
<rect width="205" height="80" fill="white"/>
</clipPath>
</defs>
</svg>
