<svg width="200" height="62" viewBox="0 0 200 62" fill="none" xmlns="http://www.w3.org/2000/svg">
<g clip-path="url(#clip0_714_2)">
<rect x="-0.5" y="1" width="42" height="60" rx="14" fill="#339BB8"/>
<mask id="path-2-outside-1_714_2" maskUnits="userSpaceOnUse" x="5.5" y="6.5" width="32" height="46" fill="black">
<rect fill="white" x="5.5" y="6.5" width="32" height="46"/>
<path d="M31.096 51.5C29.776 51.5 28.4707 51.1187 27.18 50.356C25.9187 49.6227 24.3053 48.4787 22.34 46.924C20.8733 45.7507 19.612 44.7973 18.556 44.064C17.5293 43.36 16.4 42.7587 15.168 42.26C13.9653 41.7613 12.7333 41.512 11.472 41.512C11.032 41.512 10.6947 41.5267 10.46 41.556L17.016 11.064C15.0507 11.856 13.5253 13.0733 12.44 14.716C11.384 16.3293 10.856 18.3093 10.856 20.656C10.856 21.7413 10.9587 22.504 11.164 22.944C11.3693 23.3547 11.472 23.5893 11.472 23.648C9.888 23.648 8.7 23.3253 7.908 22.68C7.14533 22.0053 6.764 20.9053 6.764 19.38C6.764 17.5027 7.52667 15.684 9.052 13.924C10.6067 12.1347 12.5867 10.6973 14.992 9.612C17.3973 8.49733 19.8027 7.94 22.208 7.94C22.6187 7.94 23.2053 7.96933 23.968 8.028L17.192 39.62C18.0133 39.8253 18.8493 40.1187 19.7 40.5C20.58 40.9107 21.636 41.4533 22.868 42.128C24.7747 43.1547 26.4027 43.932 27.752 44.46C29.1013 45.0173 30.5093 45.296 31.976 45.296C33.296 45.296 34.528 45.0613 35.672 44.592C35.4373 46.7333 34.9093 48.42 34.088 49.652C33.296 50.884 32.2987 51.5 31.096 51.5Z"/>
</mask>
<path d="M31.096 51.5C29.776 51.5 28.4707 51.1187 27.18 50.356C25.9187 49.6227 24.3053 48.4787 22.34 46.924C20.8733 45.7507 19.612 44.7973 18.556 44.064C17.5293 43.36 16.4 42.7587 15.168 42.26C13.9653 41.7613 12.7333 41.512 11.472 41.512C11.032 41.512 10.6947 41.5267 10.46 41.556L17.016 11.064C15.0507 11.856 13.5253 13.0733 12.44 14.716C11.384 16.3293 10.856 18.3093 10.856 20.656C10.856 21.7413 10.9587 22.504 11.164 22.944C11.3693 23.3547 11.472 23.5893 11.472 23.648C9.888 23.648 8.7 23.3253 7.908 22.68C7.14533 22.0053 6.764 20.9053 6.764 19.38C6.764 17.5027 7.52667 15.684 9.052 13.924C10.6067 12.1347 12.5867 10.6973 14.992 9.612C17.3973 8.49733 19.8027 7.94 22.208 7.94C22.6187 7.94 23.2053 7.96933 23.968 8.028L17.192 39.62C18.0133 39.8253 18.8493 40.1187 19.7 40.5C20.58 40.9107 21.636 41.4533 22.868 42.128C24.7747 43.1547 26.4027 43.932 27.752 44.46C29.1013 45.0173 30.5093 45.296 31.976 45.296C33.296 45.296 34.528 45.0613 35.672 44.592C35.4373 46.7333 34.9093 48.42 34.088 49.652C33.296 50.884 32.2987 51.5 31.096 51.5Z" fill="#FFF8F8"/>
<path d="M27.18 50.356L27.6887 49.4951L27.6826 49.4915L27.18 50.356ZM22.34 46.924L21.7153 47.7049L21.7196 47.7083L22.34 46.924ZM18.556 44.064L19.1264 43.2426L19.1215 43.2393L18.556 44.064ZM15.168 42.26L14.785 43.1838L14.7928 43.1869L15.168 42.26ZM10.46 41.556L9.48234 41.3458L9.18623 42.723L10.584 42.5483L10.46 41.556ZM17.016 11.064L17.9937 11.2742L18.3897 9.43228L16.6422 10.1365L17.016 11.064ZM12.44 14.716L11.6057 14.1647L11.6033 14.1683L12.44 14.716ZM11.164 22.944L10.2578 23.3669L10.2635 23.3791L10.2696 23.3912L11.164 22.944ZM11.472 23.648V24.648H12.472V23.648H11.472ZM7.908 22.68L7.24543 23.429L7.26061 23.4424L7.27633 23.4552L7.908 22.68ZM9.052 13.924L8.29713 13.2681L8.29631 13.2691L9.052 13.924ZM14.992 9.612L15.4033 10.5236L15.4125 10.5193L14.992 9.612ZM23.968 8.028L24.9458 8.23771L25.1858 7.11872L24.0447 7.03094L23.968 8.028ZM17.192 39.62L16.2142 39.4103L16.0115 40.3556L16.9495 40.5901L17.192 39.62ZM19.7 40.5L20.1229 39.5938L20.116 39.5906L20.1091 39.5875L19.7 40.5ZM22.868 42.128L22.3877 43.0051L22.3939 43.0085L22.868 42.128ZM27.752 44.46L28.1338 43.5357L28.1251 43.5322L28.1164 43.5288L27.752 44.46ZM35.672 44.592L36.6661 44.7009L36.8494 43.0281L35.2924 43.6668L35.672 44.592ZM34.088 49.652L33.256 49.0973L33.2513 49.1042L33.2468 49.1112L34.088 49.652ZM31.096 50.5C29.9782 50.5 28.8466 50.1793 27.6887 49.4951L26.6713 51.2169C28.0947 52.058 29.5738 52.5 31.096 52.5V50.5ZM27.6826 49.4915C26.4813 48.7931 24.9108 47.6826 22.9604 46.1397L21.7196 47.7083C23.6999 49.2748 25.356 50.4523 26.6774 51.2205L27.6826 49.4915ZM22.9647 46.1431C21.4876 44.9615 20.2073 43.9932 19.1264 43.2426L17.9856 44.8854C19.0167 45.6014 20.259 46.5399 21.7153 47.7049L22.9647 46.1431ZM19.1215 43.2393C18.0314 42.4918 16.8377 41.857 15.5432 41.3331L14.7928 43.1869C15.9624 43.6603 17.0272 44.2282 17.9905 44.8887L19.1215 43.2393ZM15.551 41.3363C14.2309 40.7889 12.869 40.512 11.472 40.512V42.512C12.5976 42.512 13.6997 42.7338 14.785 43.1837L15.551 41.3363ZM11.472 40.512C11.0193 40.512 10.6329 40.5266 10.336 40.5637L10.584 42.5483C10.7565 42.5267 11.0447 42.512 11.472 42.512V40.512ZM11.4377 41.7662L17.9937 11.2742L16.0383 10.8538L9.48234 41.3458L11.4377 41.7662ZM16.6422 10.1365C14.5038 10.9982 12.8114 12.3398 11.6057 14.1647L13.2743 15.2673C14.2392 13.8069 15.5975 12.7138 17.3898 11.9915L16.6422 10.1365ZM11.6033 14.1683C10.4196 15.9768 9.856 18.1574 9.856 20.656H11.856C11.856 18.4613 12.3484 16.6819 13.2767 15.2637L11.6033 14.1683ZM9.856 20.656C9.856 21.7502 9.95123 22.7099 10.2578 23.3669L12.0702 22.5211C11.9661 22.2981 11.856 21.7324 11.856 20.656H9.856ZM10.2696 23.3912C10.3696 23.5912 10.4377 23.7348 10.4788 23.8288C10.4887 23.8514 10.4961 23.869 10.5014 23.8822C10.5069 23.8958 10.509 23.9017 10.5089 23.9013C10.5088 23.901 10.5076 23.8975 10.5057 23.8915C10.5039 23.8857 10.5007 23.875 10.497 23.8603C10.4935 23.8462 10.4881 23.8227 10.4832 23.7921C10.4787 23.7637 10.472 23.7129 10.472 23.648H12.472C12.472 23.4407 12.4047 23.2637 12.3966 23.2406C12.3718 23.1699 12.3414 23.0963 12.3112 23.0272C12.2496 22.8866 12.1638 22.7075 12.0584 22.4968L10.2696 23.3912ZM11.472 22.648C9.9981 22.648 9.0783 22.3436 8.53967 21.9048L7.27633 23.4552C8.3217 24.307 9.7779 24.648 11.472 24.648V22.648ZM8.57057 21.931C8.11071 21.5242 7.764 20.7627 7.764 19.38H5.764C5.764 21.048 6.17996 22.4865 7.24543 23.429L8.57057 21.931ZM7.764 19.38C7.764 17.7972 8.40062 16.2025 9.80769 14.5789L8.29631 13.2691C6.65271 15.1655 5.764 17.2082 5.764 19.38H7.764ZM9.80687 14.5799C11.2566 12.9113 13.1146 11.5562 15.4033 10.5235L14.5807 8.70049C12.0587 9.83846 9.95675 11.358 8.29713 13.2681L9.80687 14.5799ZM15.4125 10.5193C17.6996 9.4594 19.9622 8.94 22.208 8.94V6.94C19.6432 6.94 17.095 7.53526 14.5715 8.70469L15.4125 10.5193ZM22.208 8.94C22.58 8.94 23.1364 8.96699 23.8913 9.02505L24.0447 7.03094C23.2742 6.97168 22.6574 6.94 22.208 6.94V8.94ZM22.9902 7.81828L16.2142 39.4103L18.1698 39.8297L24.9458 8.23771L22.9902 7.81828ZM16.9495 40.5901C17.7083 40.7799 18.4887 41.0529 19.2909 41.4125L20.1091 39.5875C19.21 39.1845 18.3184 38.8708 17.4345 38.6499L16.9495 40.5901ZM19.2771 41.4062C20.1312 41.8048 21.167 42.3366 22.3877 43.0051L23.3483 41.2509C22.105 40.57 21.0288 40.0166 20.1229 39.5938L19.2771 41.4062ZM22.3939 43.0085C24.3206 44.0459 25.9873 44.8433 27.3876 45.3912L28.1164 43.5288C26.8181 43.0207 25.2288 42.2634 23.3421 41.2475L22.3939 43.0085ZM27.3702 45.3843C28.8412 45.9918 30.379 46.296 31.976 46.296V44.296C30.6397 44.296 29.3615 44.0428 28.1338 43.5357L27.3702 45.3843ZM31.976 46.296C33.4173 46.296 34.7792 46.0392 36.0516 45.5172L35.2924 43.6668C34.2768 44.0835 33.1747 44.296 31.976 44.296V46.296ZM34.678 44.4831C34.4534 46.5323 33.9571 48.0456 33.256 49.0973L34.9201 50.2067C35.8616 48.7944 36.4213 46.9343 36.6661 44.7009L34.678 44.4831ZM33.2468 49.1112C32.5927 50.1288 31.8811 50.5 31.096 50.5V52.5C32.7163 52.5 33.9993 51.6392 34.9292 50.1928L33.2468 49.1112Z" fill="white" mask="url(#path-2-outside-1_714_2)"/>
<path d="M53.679 49.5C53.247 49.5 52.887 49.347 52.599 49.041L47.199 43.641C46.893 43.353 46.74 42.993 46.74 42.561V14.184C46.74 13.734 46.965 13.509 47.415 13.509H55.056C55.506 13.509 55.731 13.734 55.731 14.184V41.751C55.731 42.111 55.911 42.291 56.271 42.291H60.699V14.184C60.699 13.734 60.924 13.509 61.374 13.509H69.015C69.465 13.509 69.69 13.734 69.69 14.184V48.825C69.69 49.275 69.465 49.5 69.015 49.5H53.679ZM86.3718 49.5C85.9578 49.5 85.5978 49.383 85.2918 49.149L80.8908 45.126L76.4358 39.321C76.2378 39.069 76.1118 38.916 76.0578 38.862C76.0038 38.79 75.9768 38.628 75.9768 38.376V24.606C75.9768 24.354 76.0038 24.192 76.0578 24.12C76.1298 24.048 76.2558 23.895 76.4358 23.661L80.5668 18.315L85.2918 13.86C85.4898 13.698 85.6428 13.599 85.7508 13.563C85.8768 13.527 86.0838 13.509 86.3718 13.509H93.0408C93.4908 13.509 93.7158 13.734 93.7158 14.184V18.504C93.7158 18.648 93.6978 18.801 93.6618 18.963C93.6438 19.107 93.5538 19.233 93.3918 19.341L88.3158 22.824L84.9948 27.09V35.919L88.3698 40.185L93.3918 43.641C93.5358 43.731 93.6258 43.839 93.6618 43.965C93.6978 44.091 93.7158 44.226 93.7158 44.37V48.825C93.7158 49.275 93.4908 49.5 93.0408 49.5H86.3718ZM99.433 49.5C98.983 49.5 98.758 49.275 98.758 48.825V23.796C98.758 23.562 98.848 23.292 99.028 22.986L105.427 13.914C105.625 13.644 105.913 13.509 106.291 13.509H115.228C115.624 13.509 115.912 13.644 116.092 13.914L122.518 22.986C122.698 23.238 122.788 23.508 122.788 23.796V48.825C122.788 49.275 122.563 49.5 122.113 49.5H114.472C114.022 49.5 113.797 49.275 113.797 48.825V37.35H107.776V48.825C107.776 49.275 107.551 49.5 107.101 49.5H99.433ZM110.773 31.545C112.429 31.545 113.545 31.185 114.121 30.465C114.715 29.727 115.012 28.332 115.012 26.28C115.012 24.228 114.715 22.842 114.121 22.122C113.545 21.384 112.429 21.015 110.773 21.015C109.135 21.015 108.019 21.384 107.425 22.122C106.849 22.842 106.561 24.228 106.561 26.28C106.561 28.332 106.849 29.727 107.425 30.465C108.019 31.185 109.135 31.545 110.773 31.545ZM129.786 49.5C129.336 49.5 129.111 49.275 129.111 48.825V19.53C129.111 19.116 129.264 18.756 129.57 18.45L134.052 13.941C134.358 13.653 134.718 13.509 135.132 13.509H141.315C141.729 13.509 142.089 13.653 142.395 13.941L146.931 18.504H148.2L152.736 13.941C153.042 13.653 153.402 13.509 153.816 13.509H159.972C160.404 13.509 160.764 13.653 161.052 13.941L165.561 18.45C165.867 18.756 166.02 19.116 166.02 19.53V48.825C166.02 49.275 165.795 49.5 165.345 49.5H157.677C157.227 49.5 157.002 49.275 157.002 48.825V20.691H152.061V48.825C152.061 49.275 151.836 49.5 151.386 49.5H143.745C143.295 49.5 143.07 49.275 143.07 48.825V20.691H138.102V48.825C138.102 49.275 137.877 49.5 137.427 49.5H129.786ZM179.45 49.5C179.036 49.5 178.676 49.347 178.37 49.041L172.97 43.641C172.664 43.353 172.511 42.993 172.511 42.561V20.421C172.511 20.007 172.664 19.647 172.97 19.341L178.37 13.941C178.676 13.653 179.036 13.509 179.45 13.509H190.061C190.493 13.509 190.853 13.653 191.141 13.941L196.541 19.341C196.847 19.647 197 20.007 197 20.421V42.561C197 42.993 196.847 43.353 196.541 43.641L191.141 49.041C190.853 49.347 190.493 49.5 190.061 49.5H179.45ZM182.636 42.291H186.875C187.631 42.291 188.009 41.787 188.009 40.779V22.23C188.009 21.204 187.631 20.691 186.875 20.691H182.636C181.898 20.691 181.529 21.204 181.529 22.23V40.779C181.529 41.787 181.898 42.291 182.636 42.291Z" fill="#F1F1E6"/>
</g>
<defs>
<clipPath id="clip0_714_2">
<rect width="200" height="62" fill="white"/>
</clipPath>
</defs>
</svg>
