<svg width="42" height="60" viewBox="0 0 42 60" fill="none" xmlns="http://www.w3.org/2000/svg">
<rect width="42" height="60" rx="14" fill="#339BB8"/>
<mask id="path-2-outside-1_720_7" maskUnits="userSpaceOnUse" x="6" y="5.5" width="32" height="46" fill="black">
<rect fill="white" x="6" y="5.5" width="32" height="46"/>
<path d="M31.596 50.5C30.276 50.5 28.9707 50.1187 27.68 49.356C26.4187 48.6227 24.8053 47.4787 22.84 45.924C21.3733 44.7507 20.112 43.7973 19.056 43.064C18.0293 42.36 16.9 41.7587 15.668 41.26C14.4653 40.7613 13.2333 40.512 11.972 40.512C11.532 40.512 11.1947 40.5267 10.96 40.556L17.516 10.064C15.5507 10.856 14.0253 12.0733 12.94 13.716C11.884 15.3293 11.356 17.3093 11.356 19.656C11.356 20.7413 11.4587 21.504 11.664 21.944C11.8693 22.3547 11.972 22.5893 11.972 22.648C10.388 22.648 9.2 22.3253 8.408 21.68C7.64533 21.0053 7.264 19.9053 7.264 18.38C7.264 16.5027 8.02667 14.684 9.552 12.924C11.1067 11.1347 13.0867 9.69733 15.492 8.612C17.8973 7.49733 20.3027 6.94 22.708 6.94C23.1187 6.94 23.7053 6.96933 24.468 7.028L17.692 38.62C18.5133 38.8253 19.3493 39.1187 20.2 39.5C21.08 39.9107 22.136 40.4533 23.368 41.128C25.2747 42.1547 26.9027 42.932 28.252 43.46C29.6013 44.0173 31.0093 44.296 32.476 44.296C33.796 44.296 35.028 44.0613 36.172 43.592C35.9373 45.7333 35.4093 47.42 34.588 48.652C33.796 49.884 32.7987 50.5 31.596 50.5Z"/>
</mask>
<path d="M31.596 50.5C30.276 50.5 28.9707 50.1187 27.68 49.356C26.4187 48.6227 24.8053 47.4787 22.84 45.924C21.3733 44.7507 20.112 43.7973 19.056 43.064C18.0293 42.36 16.9 41.7587 15.668 41.26C14.4653 40.7613 13.2333 40.512 11.972 40.512C11.532 40.512 11.1947 40.5267 10.96 40.556L17.516 10.064C15.5507 10.856 14.0253 12.0733 12.94 13.716C11.884 15.3293 11.356 17.3093 11.356 19.656C11.356 20.7413 11.4587 21.504 11.664 21.944C11.8693 22.3547 11.972 22.5893 11.972 22.648C10.388 22.648 9.2 22.3253 8.408 21.68C7.64533 21.0053 7.264 19.9053 7.264 18.38C7.264 16.5027 8.02667 14.684 9.552 12.924C11.1067 11.1347 13.0867 9.69733 15.492 8.612C17.8973 7.49733 20.3027 6.94 22.708 6.94C23.1187 6.94 23.7053 6.96933 24.468 7.028L17.692 38.62C18.5133 38.8253 19.3493 39.1187 20.2 39.5C21.08 39.9107 22.136 40.4533 23.368 41.128C25.2747 42.1547 26.9027 42.932 28.252 43.46C29.6013 44.0173 31.0093 44.296 32.476 44.296C33.796 44.296 35.028 44.0613 36.172 43.592C35.9373 45.7333 35.4093 47.42 34.588 48.652C33.796 49.884 32.7987 50.5 31.596 50.5Z" fill="#FFF8F8"/>
<path d="M27.68 49.356L28.1887 48.4951L28.1826 48.4915L27.68 49.356ZM22.84 45.924L22.2153 46.7049L22.2196 46.7083L22.84 45.924ZM19.056 43.064L19.6264 42.2426L19.6215 42.2393L19.056 43.064ZM15.668 41.26L15.285 42.1838L15.2928 42.1869L15.668 41.26ZM10.96 40.556L9.98234 40.3458L9.68623 41.723L11.084 41.5483L10.96 40.556ZM17.516 10.064L18.4937 10.2742L18.8897 8.43228L17.1422 9.13648L17.516 10.064ZM12.94 13.716L12.1057 13.1647L12.1033 13.1683L12.94 13.716ZM11.664 21.944L10.7578 22.3669L10.7635 22.3791L10.7696 22.3912L11.664 21.944ZM11.972 22.648V23.648H12.972V22.648H11.972ZM8.408 21.68L7.74543 22.429L7.76061 22.4424L7.77633 22.4552L8.408 21.68ZM9.552 12.924L8.79713 12.2681L8.79631 12.2691L9.552 12.924ZM15.492 8.612L15.9033 9.52355L15.9125 9.51931L15.492 8.612ZM24.468 7.028L25.4458 7.23771L25.6858 6.11872L24.5447 6.03094L24.468 7.028ZM17.692 38.62L16.7142 38.4103L16.5115 39.3556L17.4495 39.5901L17.692 38.62ZM20.2 39.5L20.6229 38.5938L20.616 38.5906L20.6091 38.5875L20.2 39.5ZM23.368 41.128L22.8877 42.0051L22.8939 42.0085L23.368 41.128ZM28.252 43.46L28.6338 42.5357L28.6251 42.5322L28.6164 42.5288L28.252 43.46ZM36.172 43.592L37.1661 43.7009L37.3494 42.0281L35.7924 42.6668L36.172 43.592ZM34.588 48.652L33.756 48.0973L33.7513 48.1042L33.7468 48.1112L34.588 48.652ZM31.596 49.5C30.4782 49.5 29.3466 49.1793 28.1887 48.4951L27.1713 50.2169C28.5947 51.058 30.0738 51.5 31.596 51.5V49.5ZM28.1826 48.4915C26.9813 47.7931 25.4108 46.6826 23.4604 45.1397L22.2196 46.7083C24.1999 48.2748 25.856 49.4523 27.1774 50.2205L28.1826 48.4915ZM23.4647 45.1431C21.9876 43.9615 20.7073 42.9932 19.6264 42.2426L18.4856 43.8854C19.5167 44.6014 20.759 45.5399 22.2153 46.7049L23.4647 45.1431ZM19.6215 42.2393C18.5314 41.4918 17.3377 40.857 16.0432 40.3331L15.2928 42.1869C16.4624 42.6603 17.5272 43.2282 18.4905 43.8887L19.6215 42.2393ZM16.051 40.3363C14.7309 39.7889 13.369 39.512 11.972 39.512V41.512C13.0976 41.512 14.1997 41.7338 15.285 42.1837L16.051 40.3363ZM11.972 39.512C11.5193 39.512 11.1329 39.5266 10.836 39.5637L11.084 41.5483C11.2565 41.5267 11.5447 41.512 11.972 41.512V39.512ZM11.9377 40.7662L18.4937 10.2742L16.5383 9.8538L9.98234 40.3458L11.9377 40.7662ZM17.1422 9.13648C15.0038 9.99821 13.3114 11.3398 12.1057 13.1647L13.7743 14.2673C14.7392 12.8069 16.0975 11.7138 17.8898 10.9915L17.1422 9.13648ZM12.1033 13.1683C10.9196 14.9768 10.356 17.1574 10.356 19.656H12.356C12.356 17.4613 12.8484 15.6819 13.7767 14.2637L12.1033 13.1683ZM10.356 19.656C10.356 20.7502 10.4512 21.7099 10.7578 22.3669L12.5702 21.5211C12.4661 21.2981 12.356 20.7324 12.356 19.656H10.356ZM10.7696 22.3912C10.8696 22.5912 10.9377 22.7348 10.9788 22.8288C10.9887 22.8514 10.9961 22.869 11.0014 22.8822C11.0069 22.8958 11.009 22.9017 11.0089 22.9013C11.0088 22.901 11.0076 22.8975 11.0057 22.8915C11.0039 22.8857 11.0007 22.875 10.997 22.8603C10.9935 22.8462 10.9881 22.8227 10.9832 22.7921C10.9787 22.7637 10.972 22.7129 10.972 22.648H12.972C12.972 22.4407 12.9047 22.2637 12.8966 22.2406C12.8718 22.1699 12.8414 22.0963 12.8112 22.0272C12.7496 21.8866 12.6638 21.7075 12.5584 21.4968L10.7696 22.3912ZM11.972 21.648C10.4981 21.648 9.5783 21.3436 9.03967 20.9048L7.77633 22.4552C8.8217 23.307 10.2779 23.648 11.972 23.648V21.648ZM9.07057 20.931C8.61071 20.5242 8.264 19.7627 8.264 18.38H6.264C6.264 20.048 6.67996 21.4865 7.74543 22.429L9.07057 20.931ZM8.264 18.38C8.264 16.7972 8.90062 15.2025 10.3077 13.5789L8.79631 12.2691C7.15271 14.1655 6.264 16.2082 6.264 18.38H8.264ZM10.3069 13.5799C11.7566 11.9113 13.6146 10.5562 15.9033 9.5235L15.0807 7.70049C12.5587 8.83846 10.4568 10.358 8.79713 12.2681L10.3069 13.5799ZM15.9125 9.51931C18.1996 8.4594 20.4622 7.94 22.708 7.94V5.94C20.1432 5.94 17.595 6.53526 15.0715 7.70469L15.9125 9.51931ZM22.708 7.94C23.08 7.94 23.6364 7.96699 24.3913 8.02505L24.5447 6.03094C23.7742 5.97168 23.1574 5.94 22.708 5.94V7.94ZM23.4902 6.81828L16.7142 38.4103L18.6698 38.8297L25.4458 7.23771L23.4902 6.81828ZM17.4495 39.5901C18.2083 39.7799 18.9887 40.0529 19.7909 40.4125L20.6091 38.5875C19.71 38.1845 18.8184 37.8708 17.9345 37.6499L17.4495 39.5901ZM19.7771 40.4062C20.6312 40.8048 21.667 41.3366 22.8877 42.0051L23.8483 40.2509C22.605 39.57 21.5288 39.0166 20.6229 38.5938L19.7771 40.4062ZM22.8939 42.0085C24.8206 43.0459 26.4873 43.8433 27.8876 44.3912L28.6164 42.5288C27.3181 42.0207 25.7288 41.2634 23.8421 40.2475L22.8939 42.0085ZM27.8702 44.3843C29.3412 44.9918 30.879 45.296 32.476 45.296V43.296C31.1397 43.296 29.8615 43.0428 28.6338 42.5357L27.8702 44.3843ZM32.476 45.296C33.9173 45.296 35.2792 45.0392 36.5516 44.5172L35.7924 42.6668C34.7768 43.0835 33.6747 43.296 32.476 43.296V45.296ZM35.178 43.4831C34.9534 45.5323 34.4571 47.0456 33.756 48.0973L35.4201 49.2067C36.3616 47.7944 36.9213 45.9343 37.1661 43.7009L35.178 43.4831ZM33.7468 48.1112C33.0927 49.1288 32.3811 49.5 31.596 49.5V51.5C33.2163 51.5 34.4993 50.6392 35.4292 49.1928L33.7468 48.1112Z" fill="white" mask="url(#path-2-outside-1_720_7)"/>
</svg>
