<svg width="50" height="50" viewBox="0 0 50 50" fill="none" xmlns="http://www.w3.org/2000/svg">
<path d="M20.3369 10.5957L20.4346 10.6445L20.8496 11.0596V11.1084H20.8984L21.0693 11.3037L21.4844 11.7188L21.6553 11.9141L22.168 12.4268L22.3389 12.6221L22.7539 13.0371L22.9248 13.2324L23.3398 13.6475L23.5107 13.8428L23.9258 14.2578L24.0967 14.4531L24.6094 14.9658L24.7803 15.1611L25.1953 15.5762L25.3662 15.7715L25.7324 16.1377V16.1865H25.7812L25.9521 16.3818L26.3672 16.7969L26.5381 16.9922L27.0508 17.5049L27.2217 17.7002L27.6367 18.1152L27.8076 18.3105L28.1738 18.6768V18.7256H28.2227L28.3936 18.9209L28.8086 19.3359L28.9795 19.5312L29.4922 20.0439L29.6631 20.2393L30.0781 20.6543L30.249 20.8496L30.6152 21.2158V21.2646H30.6641L30.835 21.46L31.25 21.875L31.4209 22.0703L31.9336 22.583L32.1045 22.7783L32.5195 23.1934L32.6904 23.3887L33.0566 23.7549V23.8037H33.1055L33.2764 23.999L33.6914 24.4141L33.8623 24.6094L34.3262 25.0732V25.1221H34.375L34.5459 25.3174L34.7412 25.5127L34.7168 25.6104L34.5947 25.7324H34.5459V25.7812L34.3506 25.9521L34.1309 26.1719H34.082V26.2207L33.8867 26.3916L33.7158 26.5625L33.5205 26.7334L33.2764 26.9775L33.0811 27.1484L32.8613 27.3682L32.666 27.5391L32.4707 27.7344L32.2754 27.9053L32.0557 28.125L31.8604 28.2959L31.6406 28.5156L31.4453 28.6865L31.2256 28.9062L31.0303 29.0771L30.8594 29.248H30.8105V29.2969L30.6152 29.4678L30.3955 29.6875L30.2002 29.8584L29.7852 30.249L29.5654 30.4688L29.3701 30.6396L29.248 30.7617H29.1992V30.8105L29.0039 30.9814L28.833 31.1523L28.6377 31.3232L28.3936 31.5674L28.1982 31.7383L27.9785 31.958L27.7832 32.1289L27.5879 32.3242L27.3926 32.4951L27.1729 32.7148L26.9775 32.8857L26.7578 33.1055L26.5625 33.2764L26.3428 33.4961L26.1475 33.667L25.9277 33.8867L25.7324 34.0576L25.5127 34.2773L25.1221 34.6191L24.6826 35.0586L24.4873 35.2295L24.3652 35.3516H24.3164V35.4004L24.1211 35.5713L23.8525 35.8398L23.6572 36.0107L23.2422 36.4014L23.0225 36.6211L22.8271 36.792L22.7051 36.9141H22.6562V36.9629L22.4609 37.1338L22.2656 37.3291H22.2168V37.3779L22.0215 37.5488L21.8506 37.7197L21.6553 37.8906L21.4355 38.1104L21.2402 38.2812L21.0449 38.4766L20.8496 38.6475L20.6299 38.8672L20.4346 39.0381L20.1416 39.3066L20.0684 39.3799L19.9707 39.3311L19.6777 39.0137L19.5068 38.8184L19.2383 38.5254L19.0674 38.3301L18.6279 37.8418L18.3594 37.5488L18.1396 37.2803L17.9688 37.1094L17.7979 36.9141L17.5049 36.5967L17.2852 36.3281L17.0898 36.1328L16.9189 35.9375L16.6992 35.6934L16.3818 35.3271L16.04 34.9609L15.8691 34.7656L15.6494 34.5215L15.4785 34.3262L15.3809 34.2041L15.2832 34.1064L15.3564 33.9844L15.625 33.7646L15.8203 33.5693L16.0156 33.3984L16.8945 32.5928L17.0898 32.4219L17.334 32.2021L17.6514 31.9092L17.8467 31.7383L18.1641 31.4453L18.3594 31.2744L18.7256 30.9326L18.9209 30.7617L19.1895 30.5176L19.3848 30.3467L19.751 30.0049L20.4834 29.3457L20.8008 29.0527L21.0449 28.833L21.3135 28.5889L21.5088 28.418L21.8506 28.1006L22.0459 27.9297L22.3633 27.6367L22.5586 27.4658L23.1445 26.9287H23.1934V26.8799L23.4619 26.6602L23.6816 26.4404L23.877 26.2695L24.1943 25.9766L24.4385 25.7568L24.6338 25.5859L24.9512 25.293L24.9268 25.1953L21.0693 21.3379V21.2891L20.9961 21.2646L20.874 21.1182L20.7275 20.9961L20.5566 20.8008L16.0156 16.2598V16.2109H15.9668L15.7959 16.0156L15.4053 15.625L15.2344 15.4785L15.2832 15.3809L15.4541 15.21L15.6494 15.0391L15.9668 14.7217H16.0156V14.6729L16.2109 14.502L16.4551 14.2578L16.6504 14.0869L16.8945 13.8428L17.0898 13.6719L17.3096 13.4521L17.5049 13.2812L17.8223 12.9639L18.0176 12.793L18.2373 12.5732L18.4326 12.4023L18.6523 12.1826L18.8477 12.0117L19.0918 11.7676L19.2871 11.5967L19.5557 11.3281L19.751 11.1572L19.9707 10.9375L20.166 10.7666L20.3369 10.5957Z" fill="black"/>
</svg>
