<svg width="50" height="50" viewBox="0 0 50 50" fill="none" xmlns="http://www.w3.org/2000/svg">
<path d="M29.6631 10.5957L29.5654 10.6445L29.1504 11.0596V11.1084H29.1016L28.9307 11.3037L28.5156 11.7188L28.3447 11.9141L27.832 12.4268L27.6611 12.6221L27.2461 13.0371L27.0752 13.2324L26.6602 13.6475L26.4893 13.8428L26.0742 14.2578L25.9033 14.4531L25.3906 14.9658L25.2197 15.1611L24.8047 15.5762L24.6338 15.7715L24.2676 16.1377V16.1865H24.2188L24.0479 16.3818L23.6328 16.7969L23.4619 16.9922L22.9492 17.5049L22.7783 17.7002L22.3633 18.1152L22.1924 18.3105L21.8262 18.6768V18.7256H21.7773L21.6064 18.9209L21.1914 19.3359L21.0205 19.5312L20.5078 20.0439L20.3369 20.2393L19.9219 20.6543L19.751 20.8496L19.3848 21.2158V21.2646H19.3359L19.165 21.46L18.75 21.875L18.5791 22.0703L18.0664 22.583L17.8955 22.7783L17.4805 23.1934L17.3096 23.3887L16.9434 23.7549V23.8037H16.8945L16.7236 23.999L16.3086 24.4141L16.1377 24.6094L15.6738 25.0732V25.1221H15.625L15.4541 25.3174L15.2588 25.5127L15.2832 25.6104L15.4053 25.7324H15.4541V25.7812L15.6494 25.9521L15.8691 26.1719H15.918V26.2207L16.1133 26.3916L16.2842 26.5625L16.4795 26.7334L16.7236 26.9775L16.9189 27.1484L17.1387 27.3682L17.334 27.5391L17.5293 27.7344L17.7246 27.9053L17.9443 28.125L18.1396 28.2959L18.3594 28.5156L18.5547 28.6865L18.7744 28.9062L18.9697 29.0771L19.1406 29.248H19.1895V29.2969L19.3848 29.4678L19.6045 29.6875L19.7998 29.8584L20.2148 30.249L20.4346 30.4688L20.6299 30.6396L20.752 30.7617H20.8008V30.8105L20.9961 30.9814L21.167 31.1523L21.3623 31.3232L21.6064 31.5674L21.8018 31.7383L22.0215 31.958L22.2168 32.1289L22.4121 32.3242L22.6074 32.4951L22.8271 32.7148L23.0225 32.8857L23.2422 33.1055L23.4375 33.2764L23.6572 33.4961L23.8525 33.667L24.0723 33.8867L24.2676 34.0576L24.4873 34.2773L24.8779 34.6191L25.3174 35.0586L25.5127 35.2295L25.6348 35.3516H25.6836V35.4004L25.8789 35.5713L26.1475 35.8398L26.3428 36.0107L26.7578 36.4014L26.9775 36.6211L27.1729 36.792L27.2949 36.9141H27.3438V36.9629L27.5391 37.1338L27.7344 37.3291H27.7832V37.3779L27.9785 37.5488L28.1494 37.7197L28.3447 37.8906L28.5645 38.1104L28.7598 38.2812L28.9551 38.4766L29.1504 38.6475L29.3701 38.8672L29.5654 39.0381L29.8584 39.3066L29.9316 39.3799L30.0293 39.3311L30.3223 39.0137L30.4932 38.8184L30.7617 38.5254L30.9326 38.3301L31.3721 37.8418L31.6406 37.5488L31.8604 37.2803L32.0312 37.1094L32.2021 36.9141L32.4951 36.5967L32.7148 36.3281L32.9102 36.1328L33.0811 35.9375L33.3008 35.6934L33.6182 35.3271L33.96 34.9609L34.1309 34.7656L34.3506 34.5215L34.5215 34.3262L34.6191 34.2041L34.7168 34.1064L34.6436 33.9844L34.375 33.7646L34.1797 33.5693L33.9844 33.3984L33.1055 32.5928L32.9102 32.4219L32.666 32.2021L32.3486 31.9092L32.1533 31.7383L31.8359 31.4453L31.6406 31.2744L31.2744 30.9326L31.0791 30.7617L30.8105 30.5176L30.6152 30.3467L30.249 30.0049L29.5166 29.3457L29.1992 29.0527L28.9551 28.833L28.6865 28.5889L28.4912 28.418L28.1494 28.1006L27.9541 27.9297L27.6367 27.6367L27.4414 27.4658L26.8555 26.9287H26.8066V26.8799L26.5381 26.6602L26.3184 26.4404L26.123 26.2695L25.8057 25.9766L25.5615 25.7568L25.3662 25.5859L25.0488 25.293L25.0732 25.1953L28.9307 21.3379V21.2891L29.0039 21.2646L29.126 21.1182L29.2725 20.9961L29.4434 20.8008L33.9844 16.2598V16.2109H34.0332L34.2041 16.0156L34.5947 15.625L34.7656 15.4785L34.7168 15.3809L34.5459 15.21L34.3506 15.0391L34.0332 14.7217H33.9844V14.6729L33.7891 14.502L33.5449 14.2578L33.3496 14.0869L33.1055 13.8428L32.9102 13.6719L32.6904 13.4521L32.4951 13.2812L32.1777 12.9639L31.9824 12.793L31.7627 12.5732L31.5674 12.4023L31.3477 12.1826L31.1523 12.0117L30.9082 11.7676L30.7129 11.5967L30.4443 11.3281L30.249 11.1572L30.0293 10.9375L29.834 10.7666L29.6631 10.5957Z" fill="black"/>
</svg>
