<svg width="800" height="800" viewBox="0 0 800 800" fill="none" xmlns="http://www.w3.org/2000/svg">
<path d="M397.474 79.9999C425.28 79.9999 450.434 98.4456 457.04 125.771L587.166 392.046H587.577L587.36 392.8L587.577 393.554H587.166L457.04 674.217C450.434 701.543 425.269 720 397.451 720C392.834 720 388.149 719.486 383.451 718.423C350.514 710.949 330.069 679.097 337.76 647.223L460.937 392.8L337.771 152.754C330.08 120.903 350.526 89.0285 383.463 81.5656C388.149 80.5028 392.857 79.9999 397.474 79.9999ZM397.474 34.2856C389.383 34.2856 381.257 35.1885 373.36 36.9828C345.063 43.3942 321.189 60.3199 306.069 84.6514C291.314 108.411 286.789 136.4 293.326 163.474C294.183 166.994 295.451 170.389 297.097 173.623L409.863 393.383L296.617 627.291C295.2 630.24 294.091 633.314 293.326 636.491C286.8 663.566 291.314 691.554 306.057 715.303C321.154 739.634 345.04 756.571 373.371 763.006C381.269 764.8 389.371 765.714 397.451 765.714C445.44 765.714 486.96 734.8 500.137 689.931L626.263 417.897C631.257 409.966 633.657 400.731 633.223 391.463C633.074 383.337 630.72 375.337 626.434 368.32L500 109.543C486.64 64.9599 445.28 34.2856 397.474 34.2856Z" fill="white"/>
<path d="M510.777 352.149L453.634 237.863C450.811 232.217 453.097 225.349 458.743 222.526C464.411 219.726 471.268 221.989 474.08 227.634L531.223 341.92C534.045 347.566 531.76 354.434 526.114 357.257C524.468 358.069 522.72 358.457 521.017 358.457C516.823 358.457 512.788 356.149 510.777 352.149ZM430.777 192.149L419.348 169.291C416.525 163.646 418.811 156.777 424.457 153.954C430.103 151.143 436.983 153.417 439.794 159.063L451.223 181.92C454.045 187.566 451.76 194.434 446.114 197.257C444.468 198.069 442.72 198.457 441.017 198.457C436.823 198.457 432.788 196.149 430.777 192.149Z" fill="white"/>
<path d="M258.149 358C283.394 358 303.863 378.469 303.863 403.714C303.863 428.96 283.394 449.429 258.149 449.429C232.903 449.429 212.434 428.96 212.434 403.714C212.434 378.469 232.903 358 258.149 358ZM258.149 312.286C207.737 312.286 166.72 353.303 166.72 403.714C166.72 454.126 207.737 495.143 258.149 495.143C308.56 495.143 349.577 454.126 349.577 403.714C349.577 353.303 308.56 312.286 258.149 312.286Z" fill="white"/>
</svg>
