<svg width="800" height="800" viewBox="0 0 800 800" fill="none" xmlns="http://www.w3.org/2000/svg">
<path d="M402.526 720C374.72 720 349.566 701.554 342.96 674.229L212.834 407.954H212.423L212.64 407.2L212.423 406.446H212.834L342.96 125.783C349.566 98.4571 374.731 80 402.549 80C407.166 80 411.851 80.5143 416.549 81.5771C449.486 89.0514 469.931 120.903 462.24 152.777L339.063 407.2L462.229 647.246C469.92 679.097 449.474 710.971 416.537 718.434C411.851 719.497 407.143 720 402.526 720ZM402.526 765.714C410.617 765.714 418.743 764.811 426.64 763.017C454.937 756.606 478.811 739.68 493.931 715.349C508.686 691.589 513.211 663.6 506.674 636.526C505.817 633.006 504.549 629.611 502.903 626.377L390.137 406.617L503.383 172.709C504.8 169.76 505.909 166.686 506.674 163.509C513.2 136.434 508.686 108.446 493.943 84.6971C478.846 60.3657 454.96 43.4286 426.629 36.9943C418.731 35.2 410.629 34.2857 402.549 34.2857C354.56 34.2857 313.04 65.2 299.863 110.069L173.737 382.103C168.743 390.034 166.343 399.269 166.777 408.537C166.926 416.663 169.28 424.663 173.566 431.68L300 690.457C313.36 735.04 354.72 765.714 402.526 765.714Z" fill="white"/>
<path d="M289.223 447.851L346.365 562.137C349.188 567.783 346.903 574.651 341.257 577.474C335.588 580.274 328.731 578.011 325.92 572.366L268.777 458.08C265.954 452.434 268.24 445.566 273.885 442.743C275.531 441.931 277.28 441.543 278.983 441.543C283.177 441.543 287.211 443.851 289.223 447.851ZM369.223 607.851L380.651 630.709C383.474 636.354 381.188 643.223 375.543 646.046C369.897 648.857 363.017 646.583 360.206 640.937L348.777 618.08C345.954 612.434 348.24 605.566 353.885 602.743C355.531 601.931 357.28 601.543 358.983 601.543C363.177 601.543 367.211 603.851 369.223 607.851Z" fill="white"/>
<path d="M541.851 442C516.606 442 496.137 421.531 496.137 396.286C496.137 371.04 516.606 350.571 541.851 350.571C567.097 350.571 587.566 371.04 587.566 396.286C587.566 421.531 567.097 442 541.851 442ZM541.851 487.714C592.263 487.714 633.28 446.697 633.28 396.286C633.28 345.874 592.263 304.857 541.851 304.857C491.44 304.857 450.423 345.874 450.423 396.286C450.423 446.697 491.44 487.714 541.851 487.714Z" fill="white"/>
</svg>
