<svg width="30" height="30" viewBox="0 0 30 30" fill="none" xmlns="http://www.w3.org/2000/svg">
<path d="M29.604 0.146447C29.4085 -0.0490597 29.0925 -0.0490597 28.897 0.146447L27.0434 2.00001H15.4015L0.766029 16.756C0.433018 17.089 0.249512 17.5325 0.249512 18.0035C0.249512 18.4746 0.433018 18.9181 0.766029 19.2511L10.9994 29.4844C11.3429 29.8279 11.7934 29.9999 12.2449 29.9999C12.6984 29.9999 13.1519 29.8264 13.4995 29.4794L27.7504 14.8434V2.70703L29.604 0.85347C29.7995 0.657964 29.7995 0.341953 29.604 0.146447ZM26.7504 14.4374L12.7874 28.7774C12.4894 29.0754 12.0044 29.0754 11.7064 28.7774L1.47305 18.5441C1.17504 18.2461 1.17504 17.761 1.47455 17.4615L15.8185 3.00004H26.0434L23.6268 5.41662C23.2313 5.15461 22.7588 5.00011 22.2502 5.00011C20.8717 5.00011 19.7502 6.12165 19.7502 7.50019C19.7502 8.87874 20.8717 10.0003 22.2502 10.0003C23.6288 10.0003 24.7503 8.87874 24.7503 7.50019C24.7503 6.99167 24.5958 6.51916 24.3338 6.12365L26.7504 3.70707V14.4374ZM23.7503 7.50019C23.7503 8.32722 23.0773 9.00024 22.2502 9.00024C21.4232 9.00024 20.7502 8.32722 20.7502 7.50019C20.7502 6.67316 21.4232 6.00014 22.2502 6.00014C22.4813 6.00014 22.6973 6.05714 22.8928 6.15065L21.8967 7.14668C21.7012 7.34219 21.7012 7.6582 21.8967 7.8537C21.9942 7.95121 22.1222 8.00021 22.2502 8.00021C22.3783 8.00021 22.5063 7.95121 22.6038 7.8537L23.5998 6.85767C23.6938 7.05318 23.7503 7.26918 23.7503 7.50019Z" fill="black"/>
<path d="M21.1238 15.641L15.8206 20.9447C15.6251 21.1402 15.6251 21.4562 15.8206 21.6517C15.9181 21.7492 16.0461 21.7982 16.1741 21.7982C16.3021 21.7982 16.4301 21.7492 16.5276 21.6517L21.8308 16.348C22.0263 16.1525 22.0263 15.8365 21.8308 15.641C21.6353 15.4455 21.3193 15.446 21.1238 15.641Z" fill="black"/>
<path d="M22.8902 13.8705C22.7997 13.965 22.7452 14.095 22.7452 14.2255C22.7452 14.3605 22.7997 14.49 22.8902 14.5805C22.9847 14.675 23.1148 14.7255 23.2453 14.7255C23.3753 14.7255 23.5053 14.675 23.5948 14.5805C23.6898 14.49 23.7453 14.3605 23.7453 14.2255C23.7453 14.095 23.6903 13.965 23.5948 13.8705C23.4098 13.6855 23.0803 13.6855 22.8902 13.8705Z" fill="black"/>
<path d="M18.6487 9.63033C18.8442 9.43482 18.8442 9.11881 18.6487 8.9233C18.4532 8.7278 18.1371 8.7278 17.9416 8.9233L12.638 14.227C12.4425 14.4225 12.4425 14.7385 12.638 14.934C12.7355 15.0315 12.8635 15.0805 12.9915 15.0805C13.1195 15.0805 13.2475 15.0315 13.345 14.934L18.6487 9.63033Z" fill="black"/>
<path d="M16.881 15.641C16.9785 15.7385 17.1065 15.7875 17.2345 15.7875C17.3625 15.7875 17.4905 15.7385 17.588 15.641L21.1236 12.1054C21.3192 11.9099 21.3192 11.5939 21.1236 11.3984C20.9281 11.2029 20.6121 11.2029 20.4166 11.3984L16.881 14.934C16.6855 15.1295 16.6855 15.446 16.881 15.641Z" fill="black"/>
<path d="M14.0525 17.7621L13.3455 18.4691C13.15 18.6646 13.15 18.9806 13.3455 19.1762C13.443 19.2737 13.571 19.3227 13.699 19.3227C13.827 19.3227 13.955 19.2737 14.0525 19.1762L14.7595 18.4691C14.955 18.2736 14.955 17.9576 14.7595 17.7621C14.564 17.5666 14.2475 17.5671 14.0525 17.7621Z" fill="black"/>
<path d="M8.7488 14.373C8.8768 14.373 9.00481 14.324 9.10231 14.2265L14.4055 8.9233C14.601 8.72779 14.601 8.41178 14.4055 8.21627C14.21 8.02076 13.894 8.02076 13.6985 8.21627L8.39529 13.5194C8.19978 13.715 8.19978 14.031 8.39529 14.2265C8.49279 14.324 8.62079 14.373 8.7488 14.373Z" fill="black"/>
<path d="M15.8201 7.30023C15.9501 7.30023 16.0806 7.25023 16.1751 7.15523C16.2656 7.06072 16.3201 6.93572 16.3201 6.80022C16.3201 6.67021 16.2656 6.54021 16.1701 6.4452C15.9851 6.2602 15.6551 6.2602 15.4651 6.4502C15.3751 6.54071 15.3201 6.67021 15.3201 6.80022C15.3201 6.93022 15.3751 7.06072 15.4651 7.15523C15.5601 7.25023 15.6901 7.30023 15.8201 7.30023Z" fill="black"/>
<path d="M11.2248 15.6405C11.1298 15.735 11.0798 15.86 11.0798 15.9955C11.0798 16.1305 11.1298 16.2555 11.2248 16.345C11.3148 16.4401 11.4443 16.4956 11.5799 16.4956C11.7099 16.4956 11.8399 16.4406 11.9294 16.3505C12.0244 16.2555 12.0799 16.1255 12.0799 15.9955C12.0799 15.865 12.0249 15.735 11.9294 15.6405C11.7449 15.4555 11.4093 15.4555 11.2248 15.6405Z" fill="black"/>
<path d="M16.1751 17.0551C16.2656 16.9651 16.3201 16.8356 16.3201 16.7001C16.3201 16.5701 16.2656 16.4401 16.1751 16.3451C15.9851 16.16 15.6551 16.16 15.4651 16.3451C15.3751 16.4401 15.3201 16.5701 15.3201 16.7001C15.3201 16.8356 15.3751 16.9606 15.4651 17.0551C15.5601 17.1501 15.6901 17.2001 15.8201 17.2001C15.9501 17.2001 16.0801 17.1506 16.1751 17.0551Z" fill="black"/>
<path d="M12.3259 23.8143C12.6334 23.3498 12.7804 22.7938 12.7329 22.2282C12.6939 21.7562 12.4664 21.3297 12.0929 21.0267C11.7104 20.7172 11.2084 20.5752 10.7238 20.6362L9.3228 20.8112L7.39973 18.8881C7.95675 18.6236 8.64228 18.7161 9.10279 19.1766C9.2983 19.3722 9.61431 19.3722 9.80981 19.1766C10.0053 18.9811 10.0053 18.6651 9.80981 18.4696C8.95629 17.6161 7.63374 17.5106 6.66321 18.1521L6.2737 17.7626C6.07819 17.5671 5.76218 17.5671 5.56667 17.7626C5.37117 17.9581 5.37117 18.2741 5.56667 18.4696L5.95719 18.8601C5.65018 19.3242 5.50317 19.8807 5.55067 20.4462C5.58967 20.9177 5.81718 21.3447 6.19019 21.6472C6.57271 21.9567 7.07172 22.0992 7.55974 22.0387L8.96079 21.8637L10.8789 23.7818C10.3233 24.0323 9.62381 23.9408 9.18079 23.4978C8.98529 23.3023 8.66928 23.3023 8.47377 23.4978C8.27826 23.6928 8.27826 24.0093 8.47377 24.2048C8.94529 24.6768 9.57331 24.9373 10.2413 24.9373C10.7393 24.9373 11.2144 24.7918 11.6199 24.5228L11.9309 24.8338C12.0284 24.9313 12.1564 24.9803 12.2844 24.9803C12.4124 24.9803 12.5404 24.9313 12.6379 24.8338C12.8334 24.6383 12.8334 24.3223 12.6379 24.1268L12.3259 23.8143ZM7.43574 21.0467C7.21673 21.0737 6.99122 21.0107 6.82022 20.8707C6.66071 20.7407 6.56321 20.5607 6.54671 20.3627C6.52471 20.0947 6.58171 19.8332 6.69421 19.5967L8.06526 20.9677L7.43574 21.0467ZM10.8478 21.6282C11.0644 21.5987 11.2909 21.6642 11.4624 21.8037C11.6224 21.9337 11.7199 22.1137 11.7364 22.3118C11.7584 22.5798 11.7014 22.8413 11.5884 23.0778L10.2178 21.7072L10.8478 21.6282Z" fill="black"/>
</svg>
