<svg width="30" height="30" viewBox="0 0 30 30" fill="none" xmlns="http://www.w3.org/2000/svg">
<path fill-rule="evenodd" clip-rule="evenodd" d="M0.46875 15C0.46875 11.1461 1.99972 7.44999 4.72485 4.72485C7.44999 1.99972 11.1461 0.46875 15 0.46875C18.8539 0.46875 22.55 1.99972 25.2751 4.72485C28.0003 7.44999 29.5312 11.1461 29.5312 15C29.5312 18.8539 28.0003 22.55 25.2751 25.2751C22.55 28.0003 18.8539 29.5312 15 29.5312C11.1461 29.5312 7.44999 28.0003 4.72485 25.2751C1.99972 22.55 0.46875 18.8539 0.46875 15ZM6.45 18.4369C7.57311 17.4249 9.03321 16.868 10.545 16.875H19.4512C20.9643 16.867 22.4259 17.424 23.55 18.4369C24.54 19.3444 25.3106 20.4019 25.3106 22.0312C25.3106 22.4042 25.1625 22.7619 24.8987 23.0256C24.635 23.2893 24.2773 23.4375 23.9044 23.4375C23.5314 23.4375 23.1737 23.2893 22.91 23.0256C22.6463 22.7619 22.4981 22.4042 22.4981 22.0312C22.4981 21.4987 22.3294 21.135 21.6506 20.5125C21.0881 19.9969 20.2969 19.6875 19.4512 19.6875H10.545C9.69938 19.6875 8.91 19.9969 8.34563 20.5125C7.665 21.135 7.49813 21.4987 7.49813 22.0312C7.49813 22.4042 7.34997 22.7619 7.08624 23.0256C6.82252 23.2893 6.46484 23.4375 6.09188 23.4375C5.71891 23.4375 5.36123 23.2893 5.09751 23.0256C4.83378 22.7619 4.68563 22.4042 4.68563 22.0312C4.68563 20.4019 5.45625 19.3444 6.44812 18.4369H6.45ZM12.1875 9.375C12.1875 8.62908 12.4838 7.91371 13.0113 7.38626C13.5387 6.85882 14.2541 6.5625 15 6.5625C15.7459 6.5625 16.4613 6.85882 16.9887 7.38626C17.5162 7.91371 17.8125 8.62908 17.8125 9.375C17.8125 10.1209 17.5162 10.8363 16.9887 11.3637C16.4613 11.8912 15.7459 12.1875 15 12.1875C14.2541 12.1875 13.5387 11.8912 13.0113 11.3637C12.4838 10.8363 12.1875 10.1209 12.1875 9.375ZM15 3.75C13.5082 3.75 12.0774 4.34263 11.0225 5.39752C9.96763 6.45242 9.375 7.88316 9.375 9.375C9.375 10.8668 9.96763 12.2976 11.0225 13.3525C12.0774 14.4074 13.5082 15 15 15C16.4918 15 17.9226 14.4074 18.9775 13.3525C20.0324 12.2976 20.625 10.8668 20.625 9.375C20.625 7.88316 20.0324 6.45242 18.9775 5.39752C17.9226 4.34263 16.4918 3.75 15 3.75Z" fill="black"/>
</svg>
