<svg width="50" height="50" viewBox="0 0 50 50" fill="none" xmlns="http://www.w3.org/2000/svg">
<path d="M24.9891 0C33.077 0 39.6335 6.50556 39.6335 14.5306C39.6335 22.5556 33.077 29.0612 24.9891 29.0612C16.9012 29.0612 10.3447 22.5556 10.3447 14.5306C10.3545 6.50951 16.9052 0.00981444 24.9882 0H24.9891ZM24.9891 24.743C30.6735 24.743 35.2815 20.1708 35.2815 14.5306C35.2815 8.89052 30.6735 4.31821 24.9891 4.31821C19.3047 4.31821 14.6966 8.89047 14.6966 14.5306C14.7028 20.1683 19.3078 24.7369 24.9891 24.743ZM45.6959 50L44.8908 45.5696C43.1056 36.1436 34.8759 29.1067 24.9893 29.1045H24.988C15.1102 29.1045 6.8854 36.1266 5.10732 45.4142L5.08739 45.5394L4.28452 49.9569L0 49.1839L0.805085 44.7578C2.98885 33.3196 12.983 24.7863 24.9859 24.7863H24.9893C37.0036 24.7893 47.0038 33.3416 49.1472 44.6452L49.171 44.7966L49.9783 49.2335L45.6959 50Z" fill="white"/>
</svg>
