<svg width="40" height="40" viewBox="0 0 40 40" fill="none" xmlns="http://www.w3.org/2000/svg">
<path fill-rule="evenodd" clip-rule="evenodd" d="M15.8334 28.3333C18.6834 28.3333 21.3117 27.3783 23.4167 25.7717L31.3217 33.6783C31.6361 33.9819 32.0571 34.1499 32.4941 34.1461C32.9311 34.1423 33.3491 33.967 33.6581 33.658C33.9671 33.349 34.1424 32.931 34.1462 32.494C34.15 32.057 33.982 31.636 33.6784 31.3217L25.7717 23.415C27.4823 21.1727 28.3844 18.4179 28.3313 15.5981C28.2782 12.7784 27.2732 10.0594 25.4794 7.88312C23.6857 5.7068 21.2087 4.20102 18.451 3.61045C15.6933 3.01989 12.8169 3.37926 10.2892 4.63016C7.76157 5.88106 5.7312 7.94998 4.52805 10.5007C3.32491 13.0515 3.0197 15.9341 3.66202 18.6802C4.30434 21.4264 5.85644 23.8746 8.06611 25.6271C10.2758 27.3796 13.0131 28.3333 15.8334 28.3333ZM25.0001 15.8333C25.0001 18.2645 24.0343 20.5961 22.3152 22.3151C20.5961 24.0342 18.2646 25 15.8334 25C13.4022 25 11.0707 24.0342 9.35159 22.3151C7.6325 20.5961 6.66673 18.2645 6.66673 15.8333C6.66673 13.4022 7.6325 11.0706 9.35159 9.35152C11.0707 7.63243 13.4022 6.66666 15.8334 6.66666C18.2646 6.66666 20.5961 7.63243 22.3152 9.35152C24.0343 11.0706 25.0001 13.4022 25.0001 15.8333Z" fill="white"/>
</svg>
