<svg width="60" height="60" viewBox="0 0 60 60" fill="none" xmlns="http://www.w3.org/2000/svg">
<path d="M0 5.625C0 5.12772 0.197544 4.65081 0.549175 4.29917C0.900806 3.94754 1.37772 3.75 1.875 3.75H7.5C7.91824 3.75012 8.32444 3.89007 8.65399 4.14759C8.98355 4.40512 9.21754 4.76544 9.31875 5.17125L10.8375 11.25H54.375C54.6503 11.2503 54.9222 11.3111 55.1713 11.4283C55.4204 11.5455 55.6407 11.7161 55.8165 11.928C55.9922 12.1399 56.1192 12.3879 56.1883 12.6544C56.2573 12.9209 56.2669 13.1994 56.2163 13.47L50.5913 43.47C50.5108 43.8997 50.2828 44.2877 49.9466 44.5671C49.6104 44.8465 49.1871 44.9996 48.75 45H15C14.5629 44.9996 14.1396 44.8465 13.8034 44.5671C13.4672 44.2877 13.2392 43.8997 13.1588 43.47L7.5375 13.5263L6.0375 7.5H1.875C1.37772 7.5 0.900806 7.30246 0.549175 6.95083C0.197544 6.59919 0 6.12228 0 5.625ZM11.6325 15L16.5562 41.25H47.1938L52.1175 15H11.6325ZM18.75 45C16.7609 45 14.8532 45.7902 13.4467 47.1967C12.0402 48.6032 11.25 50.5109 11.25 52.5C11.25 54.4891 12.0402 56.3968 13.4467 57.8033C14.8532 59.2098 16.7609 60 18.75 60C20.7391 60 22.6468 59.2098 24.0533 57.8033C25.4598 56.3968 26.25 54.4891 26.25 52.5C26.25 50.5109 25.4598 48.6032 24.0533 47.1967C22.6468 45.7902 20.7391 45 18.75 45ZM45 45C43.0109 45 41.1032 45.7902 39.6967 47.1967C38.2902 48.6032 37.5 50.5109 37.5 52.5C37.5 54.4891 38.2902 56.3968 39.6967 57.8033C41.1032 59.2098 43.0109 60 45 60C46.9891 60 48.8968 59.2098 50.3033 57.8033C51.7098 56.3968 52.5 54.4891 52.5 52.5C52.5 50.5109 51.7098 48.6032 50.3033 47.1967C48.8968 45.7902 46.9891 45 45 45ZM18.75 48.75C19.7446 48.75 20.6984 49.1451 21.4016 49.8484C22.1049 50.5516 22.5 51.5054 22.5 52.5C22.5 53.4946 22.1049 54.4484 21.4016 55.1516C20.6984 55.8549 19.7446 56.25 18.75 56.25C17.7554 56.25 16.8016 55.8549 16.0984 55.1516C15.3951 54.4484 15 53.4946 15 52.5C15 51.5054 15.3951 50.5516 16.0984 49.8484C16.8016 49.1451 17.7554 48.75 18.75 48.75ZM45 48.75C45.9946 48.75 46.9484 49.1451 47.6516 49.8484C48.3549 50.5516 48.75 51.5054 48.75 52.5C48.75 53.4946 48.3549 54.4484 47.6516 55.1516C46.9484 55.8549 45.9946 56.25 45 56.25C44.0054 56.25 43.0516 55.8549 42.3484 55.1516C41.6451 54.4484 41.25 53.4946 41.25 52.5C41.25 51.5054 41.6451 50.5516 42.3484 49.8484C43.0516 49.1451 44.0054 48.75 45 48.75Z" fill="black"/>
</svg>
