<svg width="40" height="30" viewBox="0 0 40 30" fill="none" xmlns="http://www.w3.org/2000/svg">
<path d="M30.8739 26.1052C30.8739 28.2563 29.3301 30 27.4258 30C25.5215 30 23.9778 28.2563 23.9778 26.1052C23.9778 23.9542 25.5215 22.2104 27.4258 22.2104C29.3301 22.2104 30.8739 23.9542 30.8739 26.1052Z" fill="white"/>
<path d="M20.0374 26.1052C20.0374 28.2563 18.4937 30 16.5894 30C14.6851 30 13.1414 28.2563 13.1414 26.1052C13.1414 23.9542 14.6851 22.2104 16.5894 22.2104C18.4937 22.2104 20.0374 23.9542 20.0374 26.1052Z" fill="white"/>
<path d="M30.874 19.4285H13.1414L10.5796 13.7481L7.25472 5.61088L5.03815 0H0V2.37501H3.37572L7.25472 12.4962L11.0611 22.2105L16.5894 22.2104H27.4259H32.5927L35.9175 13.489L38.5 7H35.9175L30.874 19.4285Z" fill="white"/>
</svg>
