<svg width="140" height="32" viewBox="0 0 140 32" fill="none" xmlns="http://www.w3.org/2000/svg">
<path d="M16 6L18.2451 12.9098H25.5106L19.6327 17.1803L21.8779 24.0902L16 19.8197L10.1221 24.0902L12.3673 17.1803L6.48944 12.9098H13.7549L16 6Z" fill="#FFEE53"/>
<path d="M43 6L45.2451 12.9098H52.5106L46.6327 17.1803L48.8779 24.0902L43 19.8197L37.1221 24.0902L39.3673 17.1803L33.4894 12.9098H40.7549L43 6Z" fill="#FFEE53"/>
<path d="M70 6L72.2451 12.9098H79.5106L73.6327 17.1803L75.8779 24.0902L70 19.8197L64.1221 24.0902L66.3673 17.1803L60.4894 12.9098H67.7549L70 6Z" fill="#FFEE53"/>
<path d="M97 6L99.2451 12.9098H106.511L100.633 17.1803L102.878 24.0902L97 19.8197L91.1221 24.0902L93.3673 17.1803L87.4894 12.9098H94.7549L97 6Z" fill="#FFEE53"/>
<path d="M124 6L126.245 12.9098H133.511L127.633 17.1803L129.878 24.0902L124 19.8197L118.122 24.0902L120.367 17.1803L114.489 12.9098H121.755L124 6Z" fill="#BDBCAF"/>
</svg>
