<?xml version="1.0" encoding="UTF-8"?>
<svg version="1.1" viewBox="0 0 961 2048" width="1280" height="1280" xmlns="http://www.w3.org/2000/svg">
<path transform="translate(549,782)" d="m0 0h79l9 6 15 29v2l10-3 9 1 7 4 7 8 2 7-1 28-1 20-2 4-2 1-1 15-1 1h-36l-2-2v-7l5-1 2 3h25l1-9h-171v10h26l1-4 5 1v8l-1 1h-36l-2-2-1-14-3-3-2-33v-19l4-9 7-6 8-3 9 1 6 2 2-6 13-24 7-6zm1 6-6 5-12 23-2 5 9 3v4l-9-1-14-4h-9l-6 4-4 6-1 3 1 31 1 15h180l1-4 1-20v-24l-4-7-7-4h-8l-19 5-5-1 1-3 8-3-2-6-12-23-6-4z" fill="#FEFEFE"/>
<path transform="translate(522,1032)" d="m0 0h8l11 6 13 8 7-4 9-6 3-1h11l8 5 4 5 1 4v9l-3 7-7 6-23 15-9 1-16-4-21-13-7-5-3-5-1-4v-10l3-6 6-6z" fill="#1E99F2"/>
<path transform="translate(311,1628)" d="m0 0h14l9 4 8 7 7 14 1 9-7-1-9-4-4-6-5-4-2-1h-10l-6 4-2 2h-7l3 9v12l5 10 6 4 8 1 7-3 5-3 14 3-1 5-9 10-10 5-4 1h-8l-11-4-8-7-6-9-3-9-1-6v-10l3-11 4-8 7-8z" fill="#FEFEFE"/>
<path transform="translate(470,1628)" d="m0 0h10l8 3 10 9 7 14 1 5v15l-4 13-7 10-10 7-8 2h-8l-11-4-8-7-6-10-3-10v-17l5-14 3-2 5 12 2 5v13l4 9 1 3 4 2 6 2 8-1 6-4 5-8 1-11-3-10-4-5-7-4z" fill="#FEFEFE"/>
<path transform="translate(242,1522)" d="m0 0h9l8 5 5 8 1 8-3 9-12 17-6 8-5 3-4 1h-9l-8-5-5-8-1-7 2-8 9-15 10-12 5-3z" fill="#1E99F2"/>
<path transform="translate(301,1462)" d="m0 0h7l8 3 6 7 2 5v8l-3 8-8 7-16 10-8 4h-10l-6-3-6-7-2-6 1-10 3-5 10-9 17-10z" fill="#1E99F2"/>
<path transform="translate(359,1043)" d="m0 0 13 1 25 5 7 6 4 9v7l-4 8-8 6-9 1-28-5-8-4-5-6-2-5v-8l4-8 6-5z" fill="#1F9AF2"/>
<path transform="translate(409,808)" d="m0 0h9l8 4 5 6 2 4v14l-1 22-5 8-6 5-3 1h-10l-6-3-6-7-2-5v-14l1-20 3-7 7-6z" fill="#1E99F2"/>
<path transform="translate(183,1689)" d="m0 0h10l8 4 4 5 2 3 1 7-3 14-6 17-6 8-7 4-7 1-8-3-6-5-3-6-1-8 10-30 6-8z" fill="#1E99F2"/>
<path transform="translate(651,660)" d="m0 0 9 1 27 9 6 4 5 10v8l-4 8-9 6-6 1-12-3-23-8-5-5-3-5-1-10 3-7 4-5z" fill="#1E99F2"/>
<path transform="translate(186,413)" d="m0 0h9l8 4 4 5 2 7-1 10-4 6-10 13-8 10-7 3h-11l-7-4-5-7-1-11 3-7 14-18 5-7 5-3z" fill="#1E99F2"/>
<path transform="translate(700,1385)" d="m0 0h9l8 4 4 4 3 8-1 10-4 6-6 5-16 9-10 4h-8l-8-4-5-6-2-6v-8l3-7 5-5 25-13z" fill="#1E99F2"/>
<path transform="translate(715,709)" d="m0 0h11l8 5 9 11 10 11 3 7v8l-3 7-4 5-6 3h-10l-7-3-7-7-9-11-7-8-2-5v-9l4-8 5-4z" fill="#1E99F2"/>
<path transform="translate(462,958)" d="m0 0 10 1 6 4 10 12 10 13 1 3v13l-5 8-4 3-5 2h-8l-9-4-14-18-6-8-2-9 2-9 4-6 4-3z" fill="#1F9AF2"/>
<path transform="translate(124,1845)" d="m0 0h10l8 4 4 6 2 6-1 10-6 11-9 15-7 6-5 2h-9l-9-5-4-7-1-4v-8l9-17 9-14z" fill="#1E99F2"/>
<path transform="translate(754,1110)" d="m0 0h10l11 6 16 13 5 6 2 5v8l-4 8-7 6-2 1h-12l-10-6-10-8-8-6-5-9v-8l3-7 6-7z" fill="#1F9AF2"/>
<path transform="translate(675,1091)" d="m0 0h32l8 3 5 5 4 7v10l-6 10-8 4h-29l-9-2-6-5-4-7v-12l5-8 5-4z" fill="#1D99F2"/>
<path transform="translate(561,652)" d="m0 0h36l8 4 6 7 1 3v10l-3 6-8 7-4 1h-26l-13-2-7-7-3-6v-8l3-7 8-7z" fill="#1E99F2"/>
<path transform="translate(158,899)" d="m0 0h11l7 3 9 10 9 11 4 5 2 5v7l-4 10-4 4-5 2h-13l-6-4-12-14-9-12-1-3v-12l4-7z" fill="#1F99F2"/>
<path transform="translate(544,70)" d="m0 0h12l8 6 3 4 1 4v10l-10 29-4 5-8 4h-11l-9-6-4-9v-7l11-32 7-6z" fill="#1E99F2"/>
<path transform="translate(629,1417)" d="m0 0h7l7 3 5 5 3 6v10l-3 7-5 5-8 4-21 7h-10l-7-4-5-6-2-5v-8l4-8 7-6z" fill="#1F99F2"/>
<path transform="translate(802,1261)" d="m0 0h10l8 5 4 5 2 6v7l-5 21-4 10-5 6-7 3h-9l-6-3-6-7-2-4v-11l7-25 5-8 5-4z" fill="#1E99F2"/>
<path transform="translate(134,492)" d="m0 0 8 2 7 6 3 6v11l-14 29-6 5-7 3h-7l-8-4-5-5-2-6v-9l14-29 6-6 5-2z" fill="#1E99F2"/>
<path transform="translate(416,277)" d="m0 0 12 2 6 5 3 6v11l-4 8-21 16-8 5-5 1-10-2-6-4-4-8v-12l4-6 11-9 15-11z" fill="#1F99F2"/>
<path transform="translate(214,956)" d="m0 0h11l6 3 14 12 9 7 3 5 1 4v9l-3 7-8 6-3 1h-9l-7-3-10-9-11-9-4-5-2-4v-12l5-8z" fill="#1E99F2"/>
<path transform="translate(114,827)" d="m0 0 10 1 8 5 12 19 5 8 1 3v10l-4 8-6 5-4 1h-9l-8-4-4-5-14-22-2-4v-12l5-8 7-4z" fill="#1E99F2"/>
<path transform="translate(474,219)" d="m0 0h7l8 4 5 6 1 3v12l-6 9-12 13-6 7-5 3h-12l-7-3-6-9-1-9 3-8 11-12 9-11 6-4z" fill="#1E99F2"/>
<path transform="translate(420,892)" d="m0 0h11l6 3 5 5 11 27 1 3v9l-5 10-6 4-3 1h-8l-10-5-4-6-11-27v-10l4-8 6-5z" fill="#1E99F2"/>
<path transform="translate(259,354)" d="m0 0h11l6 3 6 7 1 3v10l-4 8-10 8-18 12-4 1h-7l-6-2-6-4-3-5-1-4v-8l3-7 7-6 19-13z" fill="#1E99F2"/>
<path transform="translate(206,1607)" d="m0 0h9l7 3 6 7 2 5v10l-7 21-5 10-5 4-9 3-9-2-6-4-4-7-1-9 10-30 6-8z" fill="#1E99F2"/>
<path transform="translate(444,733)" d="m0 0 9 1 6 4 5 7 1 5v7l-3 7-12 15-7 9-5 3-10 1-8-3-5-5-2-3-1-5v-9l6-10 10-12 6-8 5-3z" fill="#1E99F2"/>
<path transform="translate(83,1919)" d="m0 0 8 1 7 5 4 7 1 3v8l-8 16-8 13-7 6-7 2-9-1-7-5-4-7-1-10 8-16 11-17 7-4z" fill="#1E99F2"/>
<path transform="translate(803,1176)" d="m0 0h9l6 3 5 4 6 13 6 18v10l-3 6-5 5-4 3h-13l-5-3-6-7-4-11-6-17v-9l4-8 5-5z" fill="#1E99F2"/>
<path transform="translate(513,678)" d="m0 0 9 1 8 6 3 4 1 4v10l-4 8-10 7-19 11-9 1-6-2-6-4-4-7-1-9 3-9 7-6 22-13z" fill="#1E99F2"/>
<path transform="translate(81,660)" d="m0 0 9 1 8 6 4 8v13l-1 21-3 7-8 7-8 2-10-3-6-5-3-7 1-31 3-10 8-7z" fill="#1F99F2"/>
<path transform="translate(369,1435)" d="m0 0h18l8 5 4 6 1 4v10l-5 8-6 4-7 2-21 3h-7l-7-3-5-4-3-5-1-10 4-10 6-5 15-4z" fill="#1F9AF2"/>
<path transform="translate(767,1332)" d="m0 0 10 1 8 5 4 8v11l-4 7-10 9-11 9-6 4-10 1-10-5-5-9v-12l5-8 7-7 12-9 6-4z" fill="#1E99F2"/>
<path transform="translate(516,144)" d="m0 0h8l6 3 5 4 3 7v11l-15 30-5 4-4 2h-13l-8-6-4-9v-7l13-28 3-5 8-5z" fill="#1F9AF2"/>
<path transform="translate(280,1008)" d="m0 0h11l30 14 5 6 2 5v10l-3 6-6 5-4 2h-12l-29-14-5-6-2-5v-11l4-6 5-4z" fill="#1E99F2"/>
<path transform="translate(749,784)" d="m0 0 8 1 7 4 5 6 2 10 2 19v10l-4 8-6 5-10 2-7-2-8-7-2-5-3-24v-13l6-9 6-4z" fill="#1F99F2"/>
<path transform="translate(37,1980)" d="m0 0 10 2 6 4 4 7 1 10-4 9-11 19-5 6-10 4-9-1-7-5-4-7-1-4v-7l6-12 13-20 6-4z" fill="#1E99F2"/>
<path transform="translate(596,1074)" d="m0 0 16 2 20 4 7 6 3 6 1 8-4 10-6 5-4 2h-11l-23-4-8-4-5-6-2-6v-7l4-9 6-5z" fill="#1E99F2"/>
<path transform="translate(477,1053)" d="m0 0 8 2 8 7 3 6v7l-3 8-5 5-6 3-33 3-8-3-6-5-3-6v-10l4-8 7-5 12-2z" fill="#1E99F2"/>
<path transform="translate(746,867)" d="m0 0 7 2 6 4 4 6 1 3v9l-6 27-5 8-7 4-2 1h-9l-8-4-5-7-1-3v-10l6-27 4-6 6-5z" fill="#1E99F2"/>
<path transform="translate(520,1438)" d="m0 0h29l10 2 8 7 3 9-2 11-6 7-7 3h-27l-9-2-6-4-5-7-1-10 3-8 5-5z" fill="#1E99F2"/>
<path transform="translate(100,573)" d="m0 0 9 1 6 4 5 7 1 4v7l-11 32-7 6-6 2h-8l-7-4-5-6-2-5v-8l10-30 4-5 7-4z" fill="#1D99F2"/>
<path transform="translate(158,1769)" d="m0 0h8l6 3 5 5 3 5 1 6-2 10-9 24-4 5-7 4-8 1-8-3-5-5-3-4-1-11 11-30 6-7z" fill="#1F9AF2"/>
<path transform="translate(82,752)" d="m0 0h10l8 4 5 6 8 29v10l-5 8-6 5-3 1h-9l-9-5-4-6-8-29v-9l4-8 5-4z" fill="#1E99F2"/>
<path transform="translate(337,315)" d="m0 0h11l8 4 5 7 1 10-3 7-6 7-29 12h-9l-7-3-5-4-3-6v-10l3-7 5-5z" fill="#1E99F2"/>
<path transform="translate(703,939)" d="m0 0h10l8 4 5 6 1 3v12l-4 6-12 11-11 9-6 3h-11l-6-3-5-6-2-4v-9l4-9 15-13 9-8z" fill="#1D99F2"/>
<path transform="translate(642,991)" d="m0 0h12l8 5 4 5 1 4v10l-5 8-19 14-7 5-3 1h-12l-8-5-4-7v-12l5-8 21-16z" fill="#1E99F2"/>
<path transform="translate(431,1434)" d="m0 0 12 1 23 4 8 6 4 8v9l-4 8-6 5-8 2-16-2-15-3-6-3-5-6-2-5v-10l4-8 5-4z" fill="#1E99F2"/>
<path transform="translate(553)" d="m0 0h34l2 4v8l-6 29-4 6-5 4-6 2h-7l-8-4-6-7-1-4v-7l6-30z" fill="#1E99F2"/>
<path transform="translate(429,1646)" d="m0 0 4 1 2 2-1 6-11 12-9 11-10 4-12 1h-29l-18-2-16-4-12-5-8-6-5-7v-2h21l12 6 14 4 23 3h30l6-3 7-7 9-11z" fill="#FEFEFE"/>
<path transform="translate(408,1576)" d="m0 0h7l6 4 6 8 2 7v8l-3 6-8 4h-41l-4-4 1-5 7-8 7-7 16-11z" fill="#FEFEFE"/>
<path transform="translate(419,1549)" d="m0 0h7l5 4 4 8 40 100v5l-2 2-5-1-4-8-36-90-2-4-4-2h-8l-10 4-6-1-1-6 5-4z" fill="#FEFEFE"/>
<path transform="translate(298,1601)" d="m0 0h27l9 4 7 6 3 1 21 1 6 4 2 3v5l-2 2-9 1h-15l-7-4-3-3v-2l-5-2-8-3h-12l-10 3-11 7-3 2-3-5v-10l4-6 4-3z" fill="#FEFEFE"/>
<path transform="translate(397,1623)" d="m0 0h9l6 4 4 8v10l-3 6-6 5-8 1-7-4-4-7v-12l3-6z" fill="#FEFEFE"/>
<path transform="translate(552,861)" d="m0 0h72l2 2v11l-2 2-4-1v-7h-63v6l-2 2-4-1v-13z" fill="#FEFEFE"/>
<path transform="translate(462,1564)" d="m0 0h5l4 5 2 5v14l-3 7-3 3-7-1-5-4-4-8v-8l4-8z" fill="#FEFEFE"/>
<path transform="translate(548,823)" d="m0 0h81l1 5-1 1h-82l-1-4z" fill="#FEFEFE"/>
<path transform="translate(655,837)" d="m0 0h18l1 5-1 1-16 1-6 3-3 5h23l2 1v5l-2 1h-27l-3-2 1-9 5-7z" fill="#FEFEFE"/>
<path transform="translate(504,837)" d="m0 0h17l8 4 5 6 1 3v8l-2 1h-27l-3-2 1-4 1-1h23l-4-6-5-2-16-1-1-4z" fill="#FEFEFE"/>
<path transform="translate(355,1635)" d="m0 0 6 2 12 7v18l-16-6-2-1z" fill="#FEFEFE"/>
<path transform="translate(570,839)" d="m0 0h36l3 3-1 3-2 1h-36l-2-2 1-4z" fill="#FEFEFE"/>
<path transform="translate(500,804)" d="m0 0h15l1 4-1 2h-15l-1-5z" fill="#FEFEFE"/>
<path transform="translate(662,804)" d="m0 0h14l2 4-2 2h-14l-2-4z" fill="#FEFEFE"/>
</svg>
