<svg width="80" height="100" viewBox="0 0 80 100" fill="none" xmlns="http://www.w3.org/2000/svg">
<rect width="80" height="100" rx="20" fill="#33B890"/>
<path d="M57.776 80C55.856 80 53.9573 79.4453 52.08 78.336C50.2453 77.2693 47.8987 75.6053 45.04 73.344C42.9067 71.6373 41.072 70.2507 39.536 69.184C38.0427 68.16 36.4 67.2853 34.608 66.56C32.8587 65.8347 31.0667 65.472 29.232 65.472C28.592 65.472 28.1013 65.4933 27.76 65.536L37.296 21.184C34.4373 22.336 32.2187 24.1067 30.64 26.496C29.104 28.8427 28.336 31.7227 28.336 35.136C28.336 36.7147 28.4853 37.824 28.784 38.464C29.0827 39.0613 29.232 39.4027 29.232 39.488C26.928 39.488 25.2 39.0187 24.048 38.08C22.9387 37.0987 22.384 35.4987 22.384 33.28C22.384 30.5493 23.4933 27.904 25.712 25.344C27.9733 22.7413 30.8533 20.6507 34.352 19.072C37.8507 17.4507 41.3493 16.64 44.848 16.64C45.4453 16.64 46.2987 16.6827 47.408 16.768L37.552 62.72C38.7467 63.0187 39.9627 63.4453 41.2 64C42.48 64.5973 44.016 65.3867 45.808 66.368C48.5813 67.8613 50.9493 68.992 52.912 69.76C54.8747 70.5707 56.9227 70.976 59.056 70.976C60.976 70.976 62.768 70.6347 64.432 69.952C64.0907 73.0667 63.3227 75.52 62.128 77.312C60.976 79.104 59.5253 80 57.776 80Z" fill="#FFF8F8"/>
</svg>
